Graduate-Regular.otf.ufo
<glyph name="exclam" format="1">
  <advance width="260"/>
  <unicode hex="0021"/>
  <outline>
    <contour>
      <point x="80" y="120" type="line" name="hr00"/>
      <point x="80" y="0" type="line"/>
      <point x="180" y="0" type="line"/>
      <point x="180" y="120" type="line"/>
    </contour>
    <contour>
      <point x="80" y="750" type="line"/>
      <point x="80" y="470" type="line"/>
      <point x="110" y="220" type="line"/>
      <point x="150" y="220" type="line"/>
      <point x="180" y="470" type="line"/>
      <point x="180" y="750" type="line"/>
    </contour>
  </outline>
</glyph>
<glyph name="quotedbl" format="1">
  <advance width="400"/>
  <unicode hex="0022"/>
  <outline>
    <contour>
      <point x="70" y="800" type="line" name="hr00"/>
      <point x="70" y="700" type="line"/>
      <point x="100" y="550" type="line"/>
      <point x="140" y="550" type="line"/>
      <point x="170" y="700" type="line"/>
      <point x="170" y="800" type="line"/>
    </contour>
    <contour>
      <point x="230" y="800" type="line"/>
      <point x="230" y="700" type="line"/>
      <point x="260" y="550" type="line"/>
      <point x="300" y="550" type="line"/>
      <point x="330" y="700" type="line"/>
      <point x="330" y="800" type="line"/>
    </contour>
  </outline>
</glyph>
<glyph name="dollar" format="1">
  <advance width="650"/>
  <unicode hex="0024"/>
  <outline>
    <contour>
      <point x="447" y="664" type="line" name="hr00"/>
      <point x="507" y="603" type="line"/>
      <point x="568" y="664" type="line"/>
      <point x="486" y="750" type="line"/>
      <point x="370" y="750" type="line"/>
      <point x="370" y="850" type="line"/>
      <point x="300" y="850" type="line"/>
      <point x="300" y="750" type="line"/>
      <point x="204" y="750" type="line"/>
      <point x="100" y="640" type="line"/>
      <point x="100" y="444" type="line"/>
      <point x="202" y="337" type="line"/>
      <point x="300" y="337" type="line"/>
      <point x="300" y="86" type="line"/>
      <point x="204" y="86" type="line"/>
      <point x="143" y="147" type="line"/>
      <point x="82" y="86" type="line"/>
      <point x="164" y="0" type="line"/>
      <point x="300" y="0" type="line"/>
      <point x="300" y="-100" type="line"/>
      <point x="370" y="-100" type="line"/>
      <point x="370" y="0" type="line"/>
      <point x="466" y="0" type="line"/>
      <point x="570" y="110" type="line"/>
      <point x="570" y="317" type="line"/>
      <point x="469" y="423" type="line"/>
      <point x="370" y="423" type="line"/>
      <point x="370" y="664" type="line"/>
    </contour>
    <contour>
      <point x="430" y="337" type="line"/>
      <point x="478" y="288" type="line"/>
      <point x="478" y="139" type="line"/>
      <point x="427" y="86" type="line"/>
      <point x="370" y="86" type="line"/>
      <point x="370" y="337" type="line"/>
    </contour>
    <contour>
      <point x="192" y="473" type="line"/>
      <point x="192" y="611" type="line"/>
      <point x="244" y="664" type="line"/>
      <point x="300" y="664" type="line"/>
      <point x="300" y="423" type="line"/>
      <point x="241" y="423" type="line"/>
    </contour>
  </outline>
</glyph>
<glyph name="ampersand" format="1">
  <advance width="674"/>
  <unicode hex="0026"/>
  <outline>
    <contour>
      <point x="290" y="664" type="line" name="hr00"/>
      <point x="410" y="664" type="line"/>
      <point x="473" y="599" type="line"/>
      <point x="473" y="544" type="line"/>
      <point x="553" y="544" type="line"/>
      <point x="553" y="640" type="line"/>
      <point x="449" y="750" type="line"/>
      <point x="252" y="750" type="line"/>
      <point x="148" y="640" type="line"/>
      <point x="148" y="492" type="line"/>
      <point x="202" y="415" type="line"/>
      <point x="100" y="415" type="line"/>
      <point x="50" y="353" type="line"/>
      <point x="50" y="110" type="line"/>
      <point x="154" y="0" type="line"/>
      <point x="362" y="0" type="line"/>
      <point x="421" y="101" type="line"/>
      <point x="492" y="0" type="line"/>
      <point x="654" y="0" type="line"/>
      <point x="654" y="80" type="line"/>
      <point x="547" y="80" type="line"/>
      <point x="472" y="186" type="line"/>
      <point x="560" y="335" type="line"/>
      <point x="617" y="335" type="line"/>
      <point x="617" y="415" type="line"/>
      <point x="513" y="415" type="line"/>
      <point x="422" y="258" type="line"/>
      <point x="234" y="527" type="line"/>
      <point x="234" y="605" type="line"/>
    </contour>
    <contour>
      <point x="322" y="86" type="line"/>
      <point x="194" y="86" type="line"/>
      <point x="136" y="145" type="line"/>
      <point x="136" y="335" type="line"/>
      <point x="258" y="335" type="line"/>
      <point x="372" y="172" type="line"/>
    </contour>
  </outline>
</glyph>
<glyph name="parenleft" format="1">
  <advance width="352"/>
  <unicode hex="0028"/>
  <outline>
    <contour>
      <point x="192" y="-100" type="line" name="hr00"/>
      <point x="322" y="-100" type="line"/>
      <point x="322" y="-14" type="line"/>
      <point x="251" y="-14" type="line"/>
      <point x="180" y="139" type="line"/>
      <point x="180" y="611" type="line"/>
      <point x="252" y="764" type="line"/>
      <point x="322" y="764" type="line"/>
      <point x="322" y="850" type="line"/>
      <point x="192" y="850" type="line"/>
      <point x="88" y="640" type="line"/>
      <point x="88" y="110" type="line"/>
    </contour>
  </outline>
</glyph>
<glyph name="hyphen" format="1">
  <advance width="509"/>
  <unicode hex="002D"/>
  <outline>
    <contour>
      <point x="100" y="415" type="line" name="hr00"/>
      <point x="100" y="335" type="line"/>
      <point x="409" y="335" type="line"/>
      <point x="409" y="415" type="line"/>
    </contour>
  </outline>
</glyph>
<glyph name="period" format="1">
  <advance width="200"/>
  <unicode hex="002E"/>
  <outline>
    <contour>
      <point x="50" y="120" type="line" name="hr00"/>
      <point x="50" y="0" type="line"/>
      <point x="150" y="0" type="line"/>
      <point x="150" y="120" type="line"/>
    </contour>
  </outline>
</glyph>
<glyph name="three" format="1">
  <advance width="650"/>
  <unicode hex="0033"/>
  <outline>
    <contour>
      <point x="232" y="333" type="line"/>
      <point x="403" y="333" type="line"/>
      <point x="457" y="278" type="line"/>
      <point x="457" y="139" type="line"/>
      <point x="406" y="86" type="line"/>
      <point x="233" y="86" type="line"/>
      <point x="172" y="148" type="line"/>
      <point x="172" y="236" type="line"/>
      <point x="89" y="236" type="line"/>
      <point x="89" y="110" type="line"/>
      <point x="193" y="0" type="line"/>
      <point x="445" y="0" type="line"/>
      <point x="549" y="110" type="line"/>
      <point x="549" y="307" type="line"/>
      <point x="479" y="380" type="line"/>
      <point x="530" y="433" type="line" name="hr01"/>
      <point x="530" y="640" type="line"/>
      <point x="426" y="750" type="line"/>
      <point x="194" y="750" type="line"/>
      <point x="90" y="640" type="line"/>
      <point x="90" y="514" type="line"/>
      <point x="173" y="514" type="line"/>
      <point x="173" y="602" type="line"/>
      <point x="233" y="664" type="line"/>
      <point x="386" y="664" type="line"/>
      <point x="438" y="611" type="line"/>
      <point x="438" y="462" type="line"/>
      <point x="390" y="413" type="line"/>
      <point x="232" y="413" type="line"/>
    </contour>
  </outline>
</glyph>
<glyph name="four" format="1">
  <advance width="650"/>
  <unicode hex="0034"/>
  <outline>
    <contour>
      <point x="310" y="80" type="line" name="hr00"/>
      <point x="310" y="0" type="line"/>
      <point x="552" y="0" type="line"/>
      <point x="552" y="80" type="line"/>
      <point x="482" y="80" type="line"/>
      <point x="482" y="187" type="line"/>
      <point x="545" y="187" type="line"/>
      <point x="545" y="267" type="line"/>
      <point x="482" y="267" type="line"/>
      <point x="482" y="750" type="line"/>
      <point x="332" y="750" type="line"/>
      <point x="40" y="267" type="line"/>
      <point x="40" y="187" type="line"/>
      <point x="390" y="187" type="line"/>
      <point x="390" y="80" type="line"/>
    </contour>
    <contour>
      <point x="141" y="267" type="line"/>
      <point x="390" y="679" type="line"/>
      <point x="390" y="267" type="line"/>
    </contour>
  </outline>
</glyph>
<glyph name="five" format="1">
  <advance width="650"/>
  <unicode hex="0035"/>
  <outline>
    <contour>
      <point x="459" y="554" type="line"/>
      <point x="539" y="554" type="line"/>
      <point x="539" y="750" type="line"/>
      <point x="119" y="750" type="line"/>
      <point x="119" y="373" type="line"/>
      <point x="413" y="373" type="line"/>
      <point x="467" y="318" type="line"/>
      <point x="467" y="139" type="line"/>
      <point x="416" y="86" type="line"/>
      <point x="243" y="86" type="line"/>
      <point x="182" y="148" type="line" name="hr01"/>
      <point x="182" y="236" type="line"/>
      <point x="99" y="236" type="line"/>
      <point x="99" y="110" type="line"/>
      <point x="203" y="0" type="line"/>
      <point x="455" y="0" type="line"/>
      <point x="559" y="110" type="line"/>
      <point x="559" y="347" type="line"/>
      <point x="458" y="453" type="line"/>
      <point x="199" y="453" type="line" name="hr02"/>
      <point x="199" y="670" type="line"/>
      <point x="459" y="670" type="line"/>
    </contour>
  </outline>
</glyph>
<glyph name="six" format="1">
  <advance width="650"/>
  <unicode hex="0036"/>
  <outline>
    <contour>
      <point x="100" y="221" type="line"/>
      <point x="100" y="110" type="line"/>
      <point x="204" y="0" type="line"/>
      <point x="456" y="0" type="line"/>
      <point x="560" y="110" type="line"/>
      <point x="560" y="327" type="line"/>
      <point x="459" y="433" type="line"/>
      <point x="187" y="433" type="line"/>
      <point x="187" y="606" type="line"/>
      <point x="244" y="664" type="line"/>
      <point x="397" y="664" type="line"/>
      <point x="457" y="602" type="line"/>
      <point x="457" y="514" type="line"/>
      <point x="540" y="514" type="line" name="hr01"/>
      <point x="540" y="640" type="line"/>
      <point x="436" y="750" type="line"/>
      <point x="204" y="750" type="line"/>
      <point x="100" y="640" type="line"/>
    </contour>
    <contour>
      <point x="414" y="353" type="line"/>
      <point x="468" y="298" type="line"/>
      <point x="468" y="139" type="line"/>
      <point x="417" y="86" type="line"/>
      <point x="244" y="86" type="line"/>
      <point x="187" y="144" type="line"/>
      <point x="187" y="353" type="line"/>
    </contour>
  </outline>
</glyph>
<glyph name="seven" format="1">
  <advance width="650"/>
  <unicode hex="0037"/>
  <outline>
    <contour>
      <point x="159" y="80" type="line" name="hr00"/>
      <point x="159" y="0" type="line"/>
      <point x="411" y="0" type="line"/>
      <point x="411" y="80" type="line"/>
      <point x="329" y="80" type="line"/>
      <point x="556" y="670" type="line"/>
      <point x="556" y="750" type="line"/>
      <point x="90" y="750" type="line"/>
      <point x="90" y="554" type="line"/>
      <point x="170" y="554" type="line"/>
      <point x="170" y="670" type="line"/>
      <point x="461" y="670" type="line"/>
      <point x="234" y="80" type="line"/>
    </contour>
  </outline>
</glyph>
<glyph name="semicolon" format="1">
  <advance width="200"/>
  <unicode hex="003B"/>
  <outline>
    <contour>
      <point x="50" y="120" type="line" name="hr00"/>
      <point x="50" y="-130" type="line"/>
      <point x="90" y="-130" type="line"/>
      <point x="150" y="30" type="line"/>
      <point x="150" y="120" type="line"/>
    </contour>
    <contour>
      <point x="50" y="520" type="line"/>
      <point x="50" y="400" type="line"/>
      <point x="150" y="400" type="line"/>
      <point x="150" y="520" type="line"/>
    </contour>
  </outline>
</glyph>
<glyph name="equal" format="1">
  <advance width="650"/>
  <unicode hex="003D"/>
  <outline>
    <contour>
      <point x="115" y="535" type="line" name="hr00"/>
      <point x="115" y="455" type="line"/>
      <point x="535" y="455" type="line"/>
      <point x="535" y="535" type="line"/>
    </contour>
    <contour>
      <point x="115" y="295" type="line"/>
      <point x="115" y="215" type="line"/>
      <point x="535" y="215" type="line"/>
      <point x="535" y="295" type="line"/>
    </contour>
  </outline>
</glyph>
<glyph name="greater" format="1">
  <advance width="650"/>
  <unicode hex="003E"/>
  <outline>
    <contour>
      <point x="115" y="215" type="line" name="hr00"/>
      <point x="115" y="135" type="line"/>
      <point x="535" y="335" type="line"/>
      <point x="535" y="415" type="line"/>
      <point x="115" y="615" type="line"/>
      <point x="115" y="535" type="line"/>
      <point x="451" y="375" type="line"/>
    </contour>
  </outline>
</glyph>
<glyph name="question" format="1">
  <advance width="519"/>
  <unicode hex="003F"/>
  <outline>
    <contour>
      <point x="248" y="214" type="line" name="hr00"/>
      <point x="459" y="444" type="line"/>
      <point x="459" y="640" type="line"/>
      <point x="355" y="750" type="line"/>
      <point x="164" y="750" type="line"/>
      <point x="60" y="640" type="line"/>
      <point x="60" y="514" type="line"/>
      <point x="143" y="514" type="line"/>
      <point x="143" y="602" type="line"/>
      <point x="203" y="664" type="line"/>
      <point x="315" y="664" type="line"/>
      <point x="367" y="611" type="line"/>
      <point x="367" y="473" type="line"/>
      <point x="188" y="274" type="line"/>
    </contour>
    <contour>
      <point x="189" y="120" type="line"/>
      <point x="189" y="0" type="line"/>
      <point x="289" y="0" type="line"/>
      <point x="289" y="120" type="line"/>
    </contour>
  </outline>
</glyph>
<glyph name="B" format="1">
  <advance width="684"/>
  <unicode hex="0042"/>
  <outline>
    <contour>
      <point x="80" y="750" type="line"/>
      <point x="80" y="670" type="line"/>
      <point x="150" y="670" type="line"/>
      <point x="150" y="80" type="line"/>
      <point x="80" y="80" type="line"/>
      <point x="80" y="0" type="line"/>
      <point x="500" y="0" type="line"/>
      <point x="604" y="110" type="line"/>
      <point x="604" y="326" type="line"/>
      <point x="530" y="403" type="line"/>
      <point x="584" y="460" type="line" name="hr01"/>
      <point x="584" y="640" type="line"/>
      <point x="480" y="750" type="line"/>
    </contour>
    <contour>
      <point x="460" y="86" type="line"/>
      <point x="242" y="86" type="line"/>
      <point x="242" y="356" type="line"/>
      <point x="455" y="356" type="line"/>
      <point x="518" y="291" type="line" name="hr02"/>
      <point x="518" y="145" type="line"/>
    </contour>
    <contour>
      <point x="440" y="436" type="line"/>
      <point x="242" y="436" type="line"/>
      <point x="242" y="664" type="line"/>
      <point x="441" y="664" type="line"/>
      <point x="498" y="605" type="line" name="hr03"/>
      <point x="498" y="495" type="line"/>
    </contour>
  </outline>
</glyph>
<glyph name="D" format="1">
  <advance width="690"/>
  <unicode hex="0044"/>
  <outline>
    <contour>
      <point x="80" y="750" type="line" name="hr00"/>
      <point x="80" y="670" type="line"/>
      <point x="150" y="670" type="line"/>
      <point x="150" y="80" type="line"/>
      <point x="80" y="80" type="line"/>
      <point x="80" y="0" type="line"/>
      <point x="506" y="0" type="line"/>
      <point x="610" y="110" type="line"/>
      <point x="610" y="640" type="line"/>
      <point x="506" y="750" type="line"/>
    </contour>
    <contour>
      <point x="242" y="86" type="line"/>
      <point x="242" y="664" type="line"/>
      <point x="467" y="664" type="line"/>
      <point x="518" y="611" type="line"/>
      <point x="518" y="139" type="line"/>
      <point x="466" y="86" type="line"/>
    </contour>
  </outline>
</glyph>
<glyph name="K" format="1">
  <advance width="669"/>
  <unicode hex="004B"/>
  <outline>
    <contour>
      <point x="649" y="0" type="line" name="hr00"/>
      <point x="649" y="80" type="line"/>
      <point x="598" y="80" type="line"/>
      <point x="407" y="381" type="line"/>
      <point x="589" y="670" type="line"/>
      <point x="639" y="670" type="line"/>
      <point x="639" y="750" type="line"/>
      <point x="427" y="750" type="line"/>
      <point x="427" y="670" type="line"/>
      <point x="486" y="670" type="line"/>
      <point x="326" y="415" type="line"/>
      <point x="242" y="415" type="line"/>
      <point x="242" y="670" type="line"/>
      <point x="312" y="670" type="line"/>
      <point x="312" y="750" type="line"/>
      <point x="80" y="750" type="line"/>
      <point x="80" y="670" type="line"/>
      <point x="150" y="670" type="line"/>
      <point x="150" y="80" type="line"/>
      <point x="80" y="80" type="line"/>
      <point x="80" y="0" type="line"/>
      <point x="312" y="0" type="line"/>
      <point x="312" y="80" type="line"/>
      <point x="242" y="80" type="line"/>
      <point x="242" y="335" type="line"/>
      <point x="333" y="335" type="line"/>
      <point x="495" y="80" type="line"/>
      <point x="437" y="80" type="line"/>
      <point x="437" y="0" type="line"/>
    </contour>
  </outline>
</glyph>
<glyph name="M" format="1">
  <advance width="946"/>
  <unicode hex="004D"/>
  <outline>
    <contour>
      <point x="80" y="750" type="line" name="hr00"/>
      <point x="80" y="670" type="line"/>
      <point x="150" y="670" type="line"/>
      <point x="150" y="80" type="line"/>
      <point x="80" y="80" type="line"/>
      <point x="80" y="0" type="line"/>
      <point x="312" y="0" type="line"/>
      <point x="312" y="80" type="line"/>
      <point x="242" y="80" type="line"/>
      <point x="242" y="617" type="line"/>
      <point x="429" y="80" type="line"/>
      <point x="517" y="80" type="line"/>
      <point x="704" y="617" type="line"/>
      <point x="704" y="80" type="line"/>
      <point x="634" y="80" type="line"/>
      <point x="634" y="0" type="line"/>
      <point x="866" y="0" type="line"/>
      <point x="866" y="80" type="line"/>
      <point x="796" y="80" type="line"/>
      <point x="796" y="670" type="line"/>
      <point x="866" y="670" type="line"/>
      <point x="866" y="750" type="line"/>
      <point x="662" y="750" type="line"/>
      <point x="473" y="194" type="line"/>
      <point x="284" y="750" type="line"/>
    </contour>
  </outline>
</glyph>
<glyph name="S" format="1">
  <advance width="600"/>
  <unicode hex="0053"/>
  <outline>
    <contour>
      <point x="438" y="288" type="line"/>
      <point x="438" y="139" type="line"/>
      <point x="387" y="86" type="line"/>
      <point x="214" y="86" type="line"/>
      <point x="153" y="148" type="line"/>
      <point x="153" y="236" type="line"/>
      <point x="70" y="236" type="line"/>
      <point x="70" y="110" type="line"/>
      <point x="174" y="0" type="line"/>
      <point x="426" y="0" type="line"/>
      <point x="530" y="110" type="line"/>
      <point x="530" y="317" type="line"/>
      <point x="429" y="423" type="line"/>
      <point x="221" y="423" type="line"/>
      <point x="172" y="473" type="line" name="hr01"/>
      <point x="172" y="611" type="line"/>
      <point x="224" y="664" type="line"/>
      <point x="377" y="664" type="line"/>
      <point x="437" y="602" type="line"/>
      <point x="437" y="514" type="line"/>
      <point x="520" y="514" type="line"/>
      <point x="520" y="640" type="line"/>
      <point x="416" y="750" type="line"/>
      <point x="184" y="750" type="line"/>
      <point x="80" y="640" type="line"/>
      <point x="80" y="444" type="line"/>
      <point x="182" y="337" type="line"/>
      <point x="390" y="337" type="line"/>
    </contour>
  </outline>
</glyph>
<glyph name="T" format="1">
  <advance width="580"/>
  <unicode hex="0054"/>
  <outline>
    <contour>
      <point x="436" y="0" type="line" name="hr00"/>
      <point x="436" y="80" type="line"/>
      <point x="336" y="80" type="line"/>
      <point x="336" y="670" type="line"/>
      <point x="484" y="670" type="line"/>
      <point x="484" y="554" type="line"/>
      <point x="560" y="554" type="line"/>
      <point x="560" y="750" type="line"/>
      <point x="20" y="750" type="line"/>
      <point x="20" y="554" type="line"/>
      <point x="96" y="554" type="line"/>
      <point x="96" y="670" type="line"/>
      <point x="244" y="670" type="line"/>
      <point x="244" y="80" type="line"/>
      <point x="144" y="80" type="line"/>
      <point x="144" y="0" type="line"/>
    </contour>
  </outline>
</glyph>
<glyph name="V" format="1">
  <advance width="687"/>
  <unicode hex="0056"/>
  <outline>
    <contour>
      <point x="280" y="0" type="line" name="hr00"/>
      <point x="407" y="0" type="line"/>
      <point x="616" y="670" type="line"/>
      <point x="667" y="670" type="line"/>
      <point x="667" y="750" type="line"/>
      <point x="455" y="750" type="line"/>
      <point x="455" y="670" type="line"/>
      <point x="524" y="670" type="line"/>
      <point x="343" y="91" type="line"/>
      <point x="163" y="670" type="line"/>
      <point x="232" y="670" type="line"/>
      <point x="232" y="750" type="line"/>
      <point x="20" y="750" type="line"/>
      <point x="20" y="670" type="line"/>
      <point x="71" y="670" type="line"/>
    </contour>
  </outline>
</glyph>
<glyph name="X" format="1">
  <advance width="649"/>
  <unicode hex="0058"/>
  <outline>
    <contour>
      <point x="242" y="0" type="line" name="hr00"/>
      <point x="242" y="80" type="line"/>
      <point x="183" y="80" type="line"/>
      <point x="323" y="304" type="line"/>
      <point x="465" y="80" type="line"/>
      <point x="407" y="80" type="line"/>
      <point x="407" y="0" type="line"/>
      <point x="619" y="0" type="line"/>
      <point x="619" y="80" type="line"/>
      <point x="568" y="80" type="line"/>
      <point x="378" y="380" type="line"/>
      <point x="559" y="670" type="line"/>
      <point x="609" y="670" type="line"/>
      <point x="609" y="750" type="line"/>
      <point x="397" y="750" type="line"/>
      <point x="397" y="670" type="line"/>
      <point x="456" y="670" type="line"/>
      <point x="326" y="462" type="line"/>
      <point x="194" y="670" type="line"/>
      <point x="252" y="670" type="line"/>
      <point x="252" y="750" type="line"/>
      <point x="40" y="750" type="line"/>
      <point x="40" y="670" type="line"/>
      <point x="91" y="670" type="line"/>
      <point x="271" y="386" type="line"/>
      <point x="80" y="80" type="line"/>
      <point x="30" y="80" type="line"/>
      <point x="30" y="0" type="line"/>
    </contour>
  </outline>
</glyph>
<glyph name="Z" format="1">
  <advance width="596"/>
  <unicode hex="005A"/>
  <outline>
    <contour>
      <point x="55" y="80" type="line" name="hr00"/>
      <point x="55" y="0" type="line"/>
      <point x="541" y="0" type="line"/>
      <point x="541" y="196" type="line"/>
      <point x="461" y="196" type="line"/>
      <point x="461" y="80" type="line"/>
      <point x="158" y="80" type="line"/>
      <point x="541" y="670" type="line"/>
      <point x="541" y="750" type="line"/>
      <point x="75" y="750" type="line"/>
      <point x="75" y="554" type="line"/>
      <point x="155" y="554" type="line"/>
      <point x="155" y="670" type="line"/>
      <point x="438" y="670" type="line"/>
    </contour>
  </outline>
</glyph>
<glyph name="bracketright" format="1">
  <advance width="352"/>
  <unicode hex="005D"/>
  <outline>
    <contour>
      <point x="140" y="770" type="line" name="hr00"/>
      <point x="140" y="-20" type="line"/>
      <point x="30" y="-40" type="line"/>
      <point x="30" y="-100" type="line"/>
      <point x="232" y="-100" type="line"/>
      <point x="232" y="850" type="line"/>
      <point x="30" y="850" type="line"/>
      <point x="30" y="790" type="line"/>
    </contour>
  </outline>
</glyph>
<glyph name="grave" format="1">
  <advance width="423"/>
  <unicode hex="0060"/>
  <outline>
    <contour>
      <point x="130" y="743" type="line" name="hr00"/>
      <point x="208" y="711" type="line"/>
      <point x="340" y="711" type="line"/>
      <point x="353" y="749" type="line"/>
      <point x="159" y="826" type="line"/>
    </contour>
  </outline>
</glyph>
<glyph name="b" format="1">
  <advance width="684"/>
  <unicode hex="0062"/>
  <outline>
    <contour>
      <point x="80" y="650" type="line"/>
      <point x="80" y="570" type="line"/>
      <point x="150" y="570" type="line"/>
      <point x="150" y="80" type="line"/>
      <point x="80" y="80" type="line"/>
      <point x="80" y="0" type="line"/>
      <point x="500" y="0" type="line"/>
      <point x="604" y="110" type="line"/>
      <point x="604" y="266" type="line"/>
      <point x="530" y="343" type="line"/>
      <point x="584" y="400" type="line" name="hr01"/>
      <point x="584" y="540" type="line"/>
      <point x="480" y="650" type="line"/>
    </contour>
    <contour>
      <point x="460" y="86" type="line"/>
      <point x="242" y="86" type="line"/>
      <point x="242" y="296" type="line"/>
      <point x="455" y="296" type="line"/>
      <point x="518" y="231" type="line" name="hr02"/>
      <point x="518" y="145" type="line"/>
    </contour>
    <contour>
      <point x="440" y="376" type="line"/>
      <point x="242" y="376" type="line"/>
      <point x="242" y="564" type="line"/>
      <point x="441" y="564" type="line"/>
      <point x="498" y="505" type="line" name="hr03"/>
      <point x="498" y="435" type="line"/>
    </contour>
  </outline>
</glyph>
<glyph name="g" format="1">
  <advance width="620"/>
  <unicode hex="0067"/>
  <outline>
    <contour>
      <point x="223" y="86" type="line" name="hr00"/>
      <point x="172" y="139" type="line"/>
      <point x="172" y="511" type="line"/>
      <point x="224" y="564" type="line"/>
      <point x="407" y="564" type="line"/>
      <point x="470" y="499" type="line"/>
      <point x="470" y="414" type="line"/>
      <point x="550" y="414" type="line"/>
      <point x="550" y="540" type="line"/>
      <point x="446" y="650" type="line"/>
      <point x="184" y="650" type="line"/>
      <point x="80" y="540" type="line"/>
      <point x="80" y="110" type="line"/>
      <point x="184" y="0" type="line"/>
      <point x="446" y="0" type="line"/>
      <point x="550" y="110" type="line"/>
      <point x="550" y="335" type="line"/>
      <point x="332" y="335" type="line"/>
      <point x="332" y="255" type="line"/>
      <point x="470" y="255" type="line"/>
      <point x="470" y="151" type="line"/>
      <point x="406" y="86" type="line"/>
    </contour>
  </outline>
</glyph>
<glyph name="h" format="1">
  <advance width="792"/>
  <unicode hex="0068"/>
  <outline>
    <contour>
      <point x="80" y="650" type="line" name="hr00"/>
      <point x="80" y="570" type="line"/>
      <point x="150" y="570" type="line"/>
      <point x="150" y="80" type="line"/>
      <point x="80" y="80" type="line"/>
      <point x="80" y="0" type="line"/>
      <point x="312" y="0" type="line"/>
      <point x="312" y="80" type="line"/>
      <point x="242" y="80" type="line"/>
      <point x="242" y="285" type="line"/>
      <point x="550" y="285" type="line"/>
      <point x="550" y="80" type="line"/>
      <point x="480" y="80" type="line"/>
      <point x="480" y="0" type="line"/>
      <point x="712" y="0" type="line"/>
      <point x="712" y="80" type="line"/>
      <point x="642" y="80" type="line"/>
      <point x="642" y="570" type="line"/>
      <point x="712" y="570" type="line"/>
      <point x="712" y="650" type="line"/>
      <point x="480" y="650" type="line"/>
      <point x="480" y="570" type="line"/>
      <point x="550" y="570" type="line"/>
      <point x="550" y="365" type="line"/>
      <point x="242" y="365" type="line"/>
      <point x="242" y="570" type="line"/>
      <point x="312" y="570" type="line"/>
      <point x="312" y="650" type="line"/>
    </contour>
  </outline>
</glyph>
<glyph name="k" format="1">
  <advance width="669"/>
  <unicode hex="006B"/>
  <outline>
    <contour>
      <point x="649" y="0" type="line" name="hr00"/>
      <point x="649" y="80" type="line"/>
      <point x="591" y="80" type="line"/>
      <point x="410" y="332" type="line"/>
      <point x="581" y="570" type="line"/>
      <point x="639" y="570" type="line"/>
      <point x="639" y="650" type="line"/>
      <point x="427" y="650" type="line"/>
      <point x="427" y="570" type="line"/>
      <point x="478" y="570" type="line"/>
      <point x="330" y="365" type="line"/>
      <point x="242" y="365" type="line"/>
      <point x="242" y="570" type="line"/>
      <point x="312" y="570" type="line"/>
      <point x="312" y="650" type="line"/>
      <point x="80" y="650" type="line"/>
      <point x="80" y="570" type="line"/>
      <point x="150" y="570" type="line"/>
      <point x="150" y="80" type="line"/>
      <point x="80" y="80" type="line"/>
      <point x="80" y="0" type="line"/>
      <point x="312" y="0" type="line"/>
      <point x="312" y="80" type="line"/>
      <point x="242" y="80" type="line"/>
      <point x="242" y="285" type="line"/>
      <point x="341" y="285" type="line"/>
      <point x="488" y="80" type="line"/>
      <point x="437" y="80" type="line"/>
      <point x="437" y="0" type="line"/>
    </contour>
  </outline>
</glyph>
<glyph name="n" format="1">
  <advance width="812"/>
  <unicode hex="006E"/>
  <outline>
    <contour>
      <point x="534" y="0" type="line" name="hr00"/>
      <point x="672" y="0" type="line"/>
      <point x="672" y="570" type="line"/>
      <point x="742" y="570" type="line"/>
      <point x="742" y="650" type="line"/>
      <point x="510" y="650" type="line"/>
      <point x="510" y="570" type="line"/>
      <point x="580" y="570" type="line"/>
      <point x="580" y="98" type="line"/>
      <point x="288" y="650" type="line"/>
      <point x="80" y="650" type="line"/>
      <point x="80" y="570" type="line"/>
      <point x="150" y="570" type="line"/>
      <point x="150" y="80" type="line"/>
      <point x="80" y="80" type="line"/>
      <point x="80" y="0" type="line"/>
      <point x="312" y="0" type="line"/>
      <point x="312" y="80" type="line"/>
      <point x="242" y="80" type="line"/>
      <point x="242" y="551" type="line"/>
    </contour>
  </outline>
</glyph>
<glyph name="o" format="1">
  <advance width="650"/>
  <unicode hex="006F"/>
  <outline>
    <contour>
      <point x="184" y="0" type="line" name="hr00"/>
      <point x="466" y="0" type="line"/>
      <point x="570" y="110" type="line"/>
      <point x="570" y="540" type="line"/>
      <point x="466" y="650" type="line"/>
      <point x="184" y="650" type="line"/>
      <point x="80" y="540" type="line"/>
      <point x="80" y="110" type="line"/>
    </contour>
    <contour>
      <point x="223" y="86" type="line"/>
      <point x="172" y="139" type="line"/>
      <point x="172" y="511" type="line"/>
      <point x="224" y="564" type="line"/>
      <point x="427" y="564" type="line"/>
      <point x="478" y="511" type="line"/>
      <point x="478" y="139" type="line"/>
      <point x="426" y="86" type="line"/>
    </contour>
  </outline>
</glyph>
<glyph name="s" format="1">
  <advance width="600"/>
  <unicode hex="0073"/>
  <outline>
    <contour>
      <point x="438" y="228" type="line"/>
      <point x="438" y="139" type="line"/>
      <point x="387" y="86" type="line"/>
      <point x="214" y="86" type="line"/>
      <point x="153" y="148" type="line"/>
      <point x="153" y="236" type="line"/>
      <point x="70" y="236" type="line"/>
      <point x="70" y="110" type="line"/>
      <point x="174" y="0" type="line"/>
      <point x="426" y="0" type="line"/>
      <point x="530" y="110" type="line"/>
      <point x="530" y="257" type="line"/>
      <point x="429" y="363" type="line"/>
      <point x="221" y="363" type="line"/>
      <point x="172" y="413" type="line" name="hr01"/>
      <point x="172" y="511" type="line"/>
      <point x="224" y="564" type="line"/>
      <point x="377" y="564" type="line"/>
      <point x="437" y="502" type="line"/>
      <point x="437" y="414" type="line"/>
      <point x="520" y="414" type="line"/>
      <point x="520" y="540" type="line"/>
      <point x="416" y="650" type="line"/>
      <point x="184" y="650" type="line"/>
      <point x="80" y="540" type="line"/>
      <point x="80" y="384" type="line"/>
      <point x="182" y="277" type="line"/>
      <point x="390" y="277" type="line"/>
    </contour>
  </outline>
</glyph>
<glyph name="v" format="1">
  <advance width="687"/>
  <unicode hex="0076"/>
  <outline>
    <contour>
      <point x="280" y="0" type="line" name="hr00"/>
      <point x="407" y="0" type="line"/>
      <point x="612" y="570" type="line"/>
      <point x="667" y="570" type="line"/>
      <point x="667" y="650" type="line"/>
      <point x="455" y="650" type="line"/>
      <point x="455" y="570" type="line"/>
      <point x="520" y="570" type="line"/>
      <point x="343" y="79" type="line"/>
      <point x="167" y="570" type="line"/>
      <point x="232" y="570" type="line"/>
      <point x="232" y="650" type="line"/>
      <point x="20" y="650" type="line"/>
      <point x="20" y="570" type="line"/>
      <point x="75" y="570" type="line"/>
    </contour>
  </outline>
</glyph>
<glyph name="w" format="1">
  <advance width="1026"/>
  <unicode hex="0077"/>
  <outline>
    <contour>
      <point x="240" y="0" type="line" name="hr00"/>
      <point x="363" y="0" type="line"/>
      <point x="513" y="503" type="line"/>
      <point x="663" y="0" type="line"/>
      <point x="786" y="0" type="line"/>
      <point x="956" y="570" type="line"/>
      <point x="1006" y="570" type="line"/>
      <point x="1006" y="650" type="line"/>
      <point x="794" y="650" type="line"/>
      <point x="794" y="570" type="line"/>
      <point x="864" y="570" type="line"/>
      <point x="722" y="95" type="line"/>
      <point x="581" y="570" type="line"/>
      <point x="621" y="570" type="line"/>
      <point x="621" y="650" type="line"/>
      <point x="405" y="650" type="line"/>
      <point x="405" y="570" type="line"/>
      <point x="445" y="570" type="line"/>
      <point x="303" y="95" type="line"/>
      <point x="162" y="570" type="line"/>
      <point x="232" y="570" type="line"/>
      <point x="232" y="650" type="line"/>
      <point x="20" y="650" type="line"/>
      <point x="20" y="570" type="line"/>
      <point x="70" y="570" type="line"/>
    </contour>
  </outline>
</glyph>
<glyph name="y" format="1">
  <advance width="607"/>
  <unicode hex="0079"/>
  <outline>
    <contour>
      <point x="440" y="0" type="line" name="hr00"/>
      <point x="440" y="80" type="line"/>
      <point x="350" y="80" type="line"/>
      <point x="350" y="206" type="line"/>
      <point x="523" y="570" type="line"/>
      <point x="587" y="570" type="line"/>
      <point x="587" y="650" type="line"/>
      <point x="375" y="650" type="line"/>
      <point x="375" y="570" type="line"/>
      <point x="435" y="570" type="line"/>
      <point x="303" y="293" type="line"/>
      <point x="172" y="570" type="line"/>
      <point x="232" y="570" type="line"/>
      <point x="232" y="650" type="line"/>
      <point x="20" y="650" type="line"/>
      <point x="20" y="570" type="line"/>
      <point x="84" y="570" type="line"/>
      <point x="258" y="204" type="line"/>
      <point x="258" y="80" type="line"/>
      <point x="168" y="80" type="line"/>
      <point x="168" y="0" type="line"/>
    </contour>
  </outline>
</glyph>
<glyph name="braceleft" format="1">
  <advance width="352"/>
  <unicode hex="007B"/>
  <outline>
    <contour>
      <point x="219" y="308" type="line" name="hr00"/>
      <point x="146" y="375" type="line"/>
      <point x="219" y="442" type="line"/>
      <point x="197" y="711" type="line"/>
      <point x="249" y="764" type="line"/>
      <point x="314" y="764" type="line"/>
      <point x="314" y="850" type="line"/>
      <point x="209" y="850" type="line"/>
      <point x="105" y="740" type="line"/>
      <point x="127" y="461" type="line"/>
      <point x="65" y="408" type="line"/>
      <point x="65" y="342" type="line"/>
      <point x="127" y="289" type="line"/>
      <point x="105" y="10" type="line"/>
      <point x="209" y="-100" type="line"/>
      <point x="314" y="-100" type="line"/>
      <point x="314" y="-14" type="line"/>
      <point x="249" y="-14" type="line"/>
      <point x="197" y="39" type="line"/>
    </contour>
  </outline>
</glyph>
<glyph name="exclamdown" format="1">
  <advance width="260"/>
  <unicode hex="00A1"/>
  <outline>
    <contour>
      <point x="180" y="530" type="line" name="hr00"/>
      <point x="180" y="650" type="line"/>
      <point x="80" y="650" type="line"/>
      <point x="80" y="530" type="line"/>
    </contour>
    <contour>
      <point x="180" y="-100" type="line"/>
      <point x="180" y="180" type="line"/>
      <point x="150" y="430" type="line"/>
      <point x="110" y="430" type="line"/>
      <point x="80" y="180" type="line"/>
      <point x="80" y="-100" type="line"/>
    </contour>
  </outline>
</glyph>
<glyph name="cent" format="1">
  <advance width="650"/>
  <unicode hex="00A2"/>
  <outline>
    <contour>
      <point x="313" y="1" type="line" name="hr00"/>
      <point x="383" y="1" type="line"/>
      <point x="383" y="100" type="line"/>
      <point x="496" y="100" type="line"/>
      <point x="581" y="190" type="line"/>
      <point x="520" y="251" type="line"/>
      <point x="456" y="186" type="line"/>
      <point x="383" y="186" type="line"/>
      <point x="383" y="564" type="line"/>
      <point x="457" y="564" type="line"/>
      <point x="520" y="499" type="line"/>
      <point x="581" y="560" type="line"/>
      <point x="496" y="650" type="line"/>
      <point x="383" y="650" type="line"/>
      <point x="383" y="751" type="line"/>
      <point x="313" y="751" type="line"/>
      <point x="313" y="650" type="line"/>
      <point x="204" y="650" type="line"/>
      <point x="100" y="540" type="line"/>
      <point x="100" y="210" type="line"/>
      <point x="204" y="100" type="line"/>
      <point x="313" y="100" type="line"/>
    </contour>
    <contour>
      <point x="243" y="186" type="line"/>
      <point x="192" y="239" type="line"/>
      <point x="192" y="511" type="line"/>
      <point x="244" y="564" type="line"/>
      <point x="313" y="564" type="line"/>
      <point x="313" y="186" type="line"/>
    </contour>
  </outline>
</glyph>
<glyph name="sterling" format="1">
  <advance width="650"/>
  <unicode hex="00A3"/>
  <outline>
    <contour>
      <point x="97" y="404" type="line" name="hr00"/>
      <point x="97" y="334" type="line"/>
      <point x="159" y="334" type="line"/>
      <point x="159" y="192" type="line"/>
      <point x="109" y="80" type="line"/>
      <point x="79" y="80" type="line"/>
      <point x="79" y="0" type="line"/>
      <point x="565" y="0" type="line"/>
      <point x="565" y="196" type="line"/>
      <point x="485" y="196" type="line"/>
      <point x="485" y="80" type="line"/>
      <point x="203" y="80" type="line"/>
      <point x="251" y="188" type="line"/>
      <point x="251" y="334" type="line"/>
      <point x="466" y="334" type="line"/>
      <point x="466" y="404" type="line"/>
      <point x="251" y="404" type="line"/>
      <point x="251" y="611" type="line"/>
      <point x="303" y="664" type="line"/>
      <point x="436" y="664" type="line"/>
      <point x="496" y="603" type="line"/>
      <point x="557" y="664" type="line"/>
      <point x="475" y="750" type="line"/>
      <point x="263" y="750" type="line"/>
      <point x="159" y="640" type="line"/>
      <point x="159" y="404" type="line"/>
    </contour>
  </outline>
</glyph>
<glyph name="yen" format="1">
  <advance width="650"/>
  <unicode hex="00A5"/>
  <outline>
    <contour>
      <point x="462" y="0" type="line" name="hr00"/>
      <point x="462" y="80" type="line"/>
      <point x="372" y="80" type="line"/>
      <point x="372" y="224" type="line"/>
      <point x="579" y="224" type="line"/>
      <point x="579" y="294" type="line"/>
      <point x="395" y="294" type="line"/>
      <point x="440" y="404" type="line"/>
      <point x="579" y="404" type="line"/>
      <point x="579" y="474" type="line"/>
      <point x="469" y="474" type="line"/>
      <point x="550" y="670" type="line"/>
      <point x="609" y="670" type="line"/>
      <point x="609" y="750" type="line"/>
      <point x="397" y="750" type="line"/>
      <point x="397" y="670" type="line"/>
      <point x="462" y="670" type="line"/>
      <point x="325" y="338" type="line"/>
      <point x="189" y="670" type="line"/>
      <point x="254" y="670" type="line"/>
      <point x="254" y="750" type="line"/>
      <point x="42" y="750" type="line"/>
      <point x="42" y="670" type="line"/>
      <point x="101" y="670" type="line"/>
      <point x="181" y="474" type="line"/>
      <point x="72" y="474" type="line"/>
      <point x="72" y="404" type="line"/>
      <point x="210" y="404" type="line"/>
      <point x="255" y="294" type="line"/>
      <point x="72" y="294" type="line"/>
      <point x="72" y="224" type="line"/>
      <point x="280" y="224" type="line"/>
      <point x="280" y="80" type="line"/>
      <point x="190" y="80" type="line"/>
      <point x="190" y="0" type="line"/>
    </contour>
  </outline>
</glyph>
<glyph name="section" format="1">
  <advance width="600"/>
  <unicode hex="00A7"/>
  <outline>
    <contour>
      <point x="510" y="260" type="line"/>
      <point x="510" y="357" type="line"/>
      <point x="409" y="463" type="line"/>
      <point x="221" y="463" type="line"/>
      <point x="172" y="513" type="line"/>
      <point x="172" y="611" type="line"/>
      <point x="224" y="664" type="line"/>
      <point x="377" y="664" type="line"/>
      <point x="437" y="602" type="line"/>
      <point x="437" y="514" type="line"/>
      <point x="520" y="514" type="line"/>
      <point x="520" y="640" type="line"/>
      <point x="416" y="750" type="line"/>
      <point x="184" y="750" type="line"/>
      <point x="80" y="640" type="line"/>
      <point x="80" y="484" type="line"/>
      <point x="134" y="427" type="line"/>
      <point x="100" y="390" type="line" name="hr01"/>
      <point x="100" y="284" type="line"/>
      <point x="202" y="177" type="line"/>
      <point x="390" y="177" type="line"/>
      <point x="438" y="128" type="line"/>
      <point x="438" y="39" type="line"/>
      <point x="387" y="-14" type="line"/>
      <point x="214" y="-14" type="line"/>
      <point x="153" y="48" type="line" name="hr02"/>
      <point x="153" y="136" type="line"/>
      <point x="70" y="136" type="line"/>
      <point x="70" y="10" type="line"/>
      <point x="174" y="-100" type="line"/>
      <point x="426" y="-100" type="line"/>
      <point x="530" y="10" type="line"/>
      <point x="530" y="157" type="line"/>
      <point x="471" y="218" type="line"/>
    </contour>
    <contour>
      <point x="370" y="377" type="line"/>
      <point x="418" y="328" type="line"/>
      <point x="418" y="289" type="line"/>
      <point x="392" y="263" type="line"/>
      <point x="241" y="263" type="line"/>
      <point x="192" y="313" type="line" name="hr03"/>
      <point x="192" y="361" type="line"/>
      <point x="207" y="377" type="line"/>
    </contour>
  </outline>
</glyph>
<glyph name="registered" format="1">
  <advance width="700"/>
  <unicode hex="00AE"/>
  <outline>
    <contour>
      <point x="188" y="261" type="line" name="hr00"/>
      <point x="512" y="261" type="line"/>
      <point x="600" y="353" type="line"/>
      <point x="600" y="708" type="line"/>
      <point x="512" y="801" type="line"/>
      <point x="188" y="801" type="line"/>
      <point x="100" y="708" type="line"/>
      <point x="100" y="353" type="line"/>
    </contour>
    <contour>
      <point x="150" y="374" type="line"/>
      <point x="150" y="688" type="line"/>
      <point x="210" y="751" type="line"/>
      <point x="489" y="751" type="line"/>
      <point x="550" y="688" type="line"/>
      <point x="550" y="374" type="line"/>
      <point x="491" y="311" type="line"/>
      <point x="209" y="311" type="line"/>
    </contour>
    <contour>
      <point x="221" y="708" type="line"/>
      <point x="221" y="354" type="line"/>
      <point x="291" y="354" type="line"/>
      <point x="291" y="467" type="line"/>
      <point x="372" y="467" type="line"/>
      <point x="413" y="408" type="line"/>
      <point x="413" y="354" type="line"/>
      <point x="492" y="354" type="line"/>
      <point x="492" y="418" type="line"/>
      <point x="444" y="487" type="line"/>
      <point x="489" y="536" type="line"/>
      <point x="489" y="639" type="line"/>
      <point x="425" y="708" type="line"/>
    </contour>
    <contour>
      <point x="395" y="535" type="line"/>
      <point x="291" y="535" type="line"/>
      <point x="291" y="640" type="line"/>
      <point x="396" y="640" type="line"/>
      <point x="423" y="612" type="line"/>
      <point x="423" y="563" type="line"/>
    </contour>
  </outline>
</glyph>
<glyph name="macron" format="1">
  <advance width="343"/>
  <unicode hex="00AF"/>
  <outline>
    <contour>
      <point x="50" y="711" type="line" name="hr00"/>
      <point x="293" y="711" type="line"/>
      <point x="293" y="800" type="line"/>
      <point x="50" y="800" type="line"/>
    </contour>
  </outline>
</glyph>
<glyph name="degree" format="1">
  <advance width="401"/>
  <unicode hex="00B0"/>
  <outline>
    <contour>
      <point x="115" y="500" type="line" name="hr00"/>
      <point x="287" y="500" type="line"/>
      <point x="351" y="569" type="line"/>
      <point x="351" y="732" type="line"/>
      <point x="287" y="801" type="line"/>
      <point x="115" y="801" type="line"/>
      <point x="50" y="732" type="line"/>
      <point x="50" y="569" type="line"/>
    </contour>
    <contour>
      <point x="145" y="568" type="line"/>
      <point x="118" y="595" type="line"/>
      <point x="118" y="706" type="line"/>
      <point x="145" y="733" type="line"/>
      <point x="257" y="733" type="line"/>
      <point x="284" y="706" type="line"/>
      <point x="284" y="595" type="line"/>
      <point x="257" y="568" type="line"/>
    </contour>
  </outline>
</glyph>
<glyph name="twosuperior" format="1">
  <advance width="390"/>
  <unicode hex="00B2"/>
  <outline>
    <contour>
      <point x="43" y="330" type="line"/>
      <point x="328" y="330" type="line"/>
      <point x="328" y="461" type="line"/>
      <point x="264" y="461" type="line" name="hr01"/>
      <point x="264" y="394" type="line"/>
      <point x="138" y="394" type="line"/>
      <point x="319" y="592" type="line"/>
      <point x="319" y="713" type="line"/>
      <point x="254" y="782" type="line"/>
      <point x="111" y="782" type="line"/>
      <point x="47" y="713" type="line"/>
      <point x="47" y="627" type="line"/>
      <point x="112" y="627" type="line"/>
      <point x="112" y="684" type="line"/>
      <point x="141" y="714" type="line"/>
      <point x="224" y="714" type="line"/>
      <point x="248" y="690" type="line" name="hr02"/>
      <point x="248" y="617" type="line"/>
      <point x="43" y="388" type="line"/>
    </contour>
  </outline>
</glyph>
<glyph name="acute" format="1">
  <advance width="423"/>
  <unicode hex="00B4"/>
  <outline>
    <contour>
      <point x="324" y="826" type="line" name="hr00"/>
      <point x="130" y="749" type="line"/>
      <point x="143" y="711" type="line"/>
      <point x="275" y="711" type="line"/>
      <point x="353" y="743" type="line"/>
    </contour>
  </outline>
</glyph>
<glyph name="mu" format="1">
  <advance width="740"/>
  <unicode hex="00B5"/>
  <outline>
    <contour>
      <point x="130" y="-180" type="line" name="hr00"/>
      <point x="222" y="-180" type="line"/>
      <point x="222" y="0" type="line"/>
      <point x="506" y="0" type="line"/>
      <point x="610" y="110" type="line"/>
      <point x="610" y="650" type="line"/>
      <point x="518" y="650" type="line"/>
      <point x="518" y="139" type="line"/>
      <point x="466" y="86" type="line"/>
      <point x="222" y="86" type="line"/>
      <point x="222" y="650" type="line"/>
      <point x="130" y="650" type="line"/>
    </contour>
  </outline>
</glyph>
<glyph name="paragraph" format="1">
  <advance width="614"/>
  <unicode hex="00B6"/>
  <outline>
    <contour>
      <point x="544" y="750" type="line" name="hr00"/>
      <point x="144" y="750" type="line"/>
      <point x="40" y="640" type="line"/>
      <point x="40" y="410" type="line"/>
      <point x="144" y="300" type="line"/>
      <point x="382" y="300" type="line"/>
      <point x="382" y="0" type="line"/>
      <point x="472" y="-85" type="line"/>
      <point x="533" y="-24" type="line"/>
      <point x="474" y="33" type="line"/>
      <point x="474" y="670" type="line"/>
      <point x="544" y="670" type="line"/>
    </contour>
    <contour>
      <point x="183" y="664" type="line"/>
      <point x="382" y="664" type="line"/>
      <point x="382" y="386" type="line"/>
      <point x="183" y="386" type="line"/>
    </contour>
  </outline>
</glyph>
<glyph name="cedilla" format="1">
  <advance width="200"/>
  <unicode hex="00B8"/>
  <outline>
    <contour>
      <point x="60" y="0" type="line" name="hr00"/>
      <point x="40" y="-150" type="line"/>
      <point x="90" y="-150" type="line"/>
      <point x="160" y="0" type="line"/>
    </contour>
  </outline>
</glyph>
<glyph name="onesuperior" format="1">
  <advance width="390"/>
  <unicode hex="00B9"/>
  <outline>
    <contour>
      <point x="86" y="394" type="line" name="hr00"/>
      <point x="86" y="330" type="line"/>
      <point x="332" y="330" type="line"/>
      <point x="332" y="394" type="line"/>
      <point x="245" y="394" type="line"/>
      <point x="245" y="782" type="line"/>
      <point x="181" y="782" type="line"/>
      <point x="54" y="719" type="line"/>
      <point x="84" y="658" type="line"/>
      <point x="173" y="703" type="line"/>
      <point x="173" y="394" type="line"/>
    </contour>
  </outline>
</glyph>
<glyph name="onequarter" format="1">
  <advance width="900"/>
  <unicode hex="00BC"/>
  <outline>
    <contour>
      <point x="723" y="0" type="line" name="hr00"/>
      <point x="794" y="0" type="line"/>
      <point x="794" y="108" type="line"/>
      <point x="830" y="108" type="line"/>
      <point x="830" y="172" type="line"/>
      <point x="794" y="172" type="line"/>
      <point x="794" y="452" type="line"/>
      <point x="692" y="452" type="line"/>
      <point x="521" y="165" type="line"/>
      <point x="521" y="108" type="line"/>
      <point x="723" y="108" type="line"/>
    </contour>
    <contour>
      <point x="605" y="172" type="line"/>
      <point x="723" y="370" type="line"/>
      <point x="723" y="172" type="line"/>
    </contour>
    <contour>
      <point x="85" y="362" type="line"/>
      <point x="85" y="298" type="line"/>
      <point x="331" y="298" type="line"/>
      <point x="331" y="362" type="line"/>
      <point x="244" y="362" type="line"/>
      <point x="244" y="750" type="line"/>
      <point x="180" y="750" type="line"/>
      <point x="53" y="687" type="line"/>
      <point x="83" y="626" type="line"/>
      <point x="172" y="671" type="line"/>
      <point x="172" y="362" type="line"/>
    </contour>
    <contour>
      <point x="259" y="-35" type="line"/>
      <point x="336" y="-35" type="line"/>
      <point x="641" y="784" type="line"/>
      <point x="564" y="784" type="line"/>
    </contour>
  </outline>
</glyph>
<glyph name="onehalf" format="1">
  <advance width="900"/>
  <unicode hex="00BD"/>
  <outline>
    <contour>
      <point x="546" y="0" type="line"/>
      <point x="831" y="0" type="line"/>
      <point x="831" y="131" type="line"/>
      <point x="767" y="131" type="line" name="hr01"/>
      <point x="767" y="64" type="line"/>
      <point x="641" y="64" type="line"/>
      <point x="822" y="262" type="line"/>
      <point x="822" y="383" type="line"/>
      <point x="757" y="452" type="line"/>
      <point x="614" y="452" type="line"/>
      <point x="550" y="383" type="line"/>
      <point x="550" y="297" type="line"/>
      <point x="615" y="297" type="line"/>
      <point x="615" y="354" type="line"/>
      <point x="644" y="384" type="line"/>
      <point x="727" y="384" type="line"/>
      <point x="751" y="360" type="line" name="hr02"/>
      <point x="751" y="287" type="line"/>
      <point x="546" y="58" type="line"/>
    </contour>
    <contour>
      <point x="85" y="362" type="line"/>
      <point x="85" y="298" type="line"/>
      <point x="331" y="298" type="line"/>
      <point x="331" y="362" type="line"/>
      <point x="244" y="362" type="line"/>
      <point x="244" y="750" type="line"/>
      <point x="180" y="750" type="line"/>
      <point x="53" y="687" type="line"/>
      <point x="83" y="626" type="line"/>
      <point x="172" y="671" type="line"/>
      <point x="172" y="362" type="line"/>
    </contour>
    <contour>
      <point x="259" y="-35" type="line"/>
      <point x="336" y="-35" type="line"/>
      <point x="641" y="784" type="line"/>
      <point x="564" y="784" type="line"/>
    </contour>
  </outline>
</glyph>
<glyph name="Agrave" format="1">
  <advance width="657"/>
  <unicode hex="00C0"/>
  <outline>
    <contour>
      <point x="195" y="750" type="line"/>
      <point x="195" y="670" type="line"/>
      <point x="241" y="670" type="line"/>
      <point x="65" y="80" type="line"/>
      <point x="15" y="80" type="line"/>
      <point x="15" y="0" type="line"/>
      <point x="227" y="0" type="line"/>
      <point x="227" y="80" type="line"/>
      <point x="157" y="80" type="line"/>
      <point x="203" y="234" type="line"/>
      <point x="454" y="234" type="line"/>
      <point x="500" y="80" type="line"/>
      <point x="430" y="80" type="line"/>
      <point x="430" y="0" type="line"/>
      <point x="642" y="0" type="line"/>
      <point x="642" y="80" type="line"/>
      <point x="592" y="80" type="line"/>
      <point x="416" y="670" type="line"/>
      <point x="462" y="670" type="line"/>
      <point x="462" y="750" type="line"/>
    </contour>
    <contour>
      <point x="328" y="655" type="line"/>
      <point x="430" y="314" type="line"/>
      <point x="227" y="314" type="line"/>
    </contour>
    <contour>
      <point x="217" y="843" type="line"/>
      <point x="295" y="811" type="line" name="hr01"/>
      <point x="427" y="811" type="line"/>
      <point x="440" y="849" type="line"/>
      <point x="246" y="926" type="line"/>
    </contour>
  </outline>
</glyph>
<glyph name="Acircumflex" format="1">
  <advance width="657"/>
  <unicode hex="00C2"/>
  <outline>
    <contour>
      <point x="430" y="0" type="line" name="hr00"/>
      <point x="642" y="0" type="line"/>
      <point x="642" y="80" type="line"/>
      <point x="592" y="80" type="line"/>
      <point x="416" y="670" type="line"/>
      <point x="462" y="670" type="line"/>
      <point x="462" y="750" type="line"/>
      <point x="195" y="750" type="line"/>
      <point x="195" y="670" type="line"/>
      <point x="241" y="670" type="line"/>
      <point x="65" y="80" type="line"/>
      <point x="15" y="80" type="line"/>
      <point x="15" y="0" type="line"/>
      <point x="227" y="0" type="line"/>
      <point x="227" y="80" type="line"/>
      <point x="157" y="80" type="line"/>
      <point x="203" y="234" type="line"/>
      <point x="454" y="234" type="line"/>
      <point x="500" y="80" type="line"/>
      <point x="430" y="80" type="line"/>
    </contour>
    <contour>
      <point x="328" y="655" type="line"/>
      <point x="430" y="314" type="line"/>
      <point x="227" y="314" type="line"/>
    </contour>
    <contour>
      <point x="279" y="916" type="line"/>
      <point x="190" y="839" type="line"/>
      <point x="203" y="811" type="line"/>
      <point x="285" y="811" type="line"/>
      <point x="328" y="860" type="line"/>
      <point x="372" y="811" type="line"/>
      <point x="454" y="811" type="line"/>
      <point x="467" y="839" type="line"/>
      <point x="378" y="916" type="line"/>
    </contour>
  </outline>
</glyph>
<glyph name="Eacute" format="1">
  <advance width="636"/>
  <unicode hex="00C9"/>
  <outline>
    <contour>
      <point x="80" y="750" type="line"/>
      <point x="80" y="670" type="line"/>
      <point x="150" y="670" type="line"/>
      <point x="150" y="80" type="line"/>
      <point x="80" y="80" type="line"/>
      <point x="80" y="0" type="line"/>
      <point x="556" y="0" type="line"/>
      <point x="556" y="196" type="line"/>
      <point x="476" y="196" type="line"/>
      <point x="476" y="80" type="line"/>
      <point x="242" y="80" type="line"/>
      <point x="242" y="335" type="line"/>
      <point x="476" y="335" type="line"/>
      <point x="476" y="415" type="line"/>
      <point x="242" y="415" type="line"/>
      <point x="242" y="670" type="line"/>
      <point x="476" y="670" type="line"/>
      <point x="476" y="554" type="line"/>
      <point x="556" y="554" type="line"/>
      <point x="556" y="750" type="line"/>
    </contour>
    <contour>
      <point x="395" y="926" type="line"/>
      <point x="201" y="849" type="line"/>
      <point x="214" y="811" type="line" name="hr01"/>
      <point x="346" y="811" type="line"/>
      <point x="424" y="843" type="line"/>
    </contour>
  </outline>
</glyph>
<glyph name="Ecircumflex" format="1">
  <advance width="636"/>
  <unicode hex="00CA"/>
  <outline>
    <contour>
      <point x="80" y="750" type="line" name="hr00"/>
      <point x="80" y="670" type="line"/>
      <point x="150" y="670" type="line"/>
      <point x="150" y="80" type="line"/>
      <point x="80" y="80" type="line"/>
      <point x="80" y="0" type="line"/>
      <point x="556" y="0" type="line"/>
      <point x="556" y="196" type="line"/>
      <point x="476" y="196" type="line"/>
      <point x="476" y="80" type="line"/>
      <point x="242" y="80" type="line"/>
      <point x="242" y="335" type="line"/>
      <point x="476" y="335" type="line"/>
      <point x="476" y="415" type="line"/>
      <point x="242" y="415" type="line"/>
      <point x="242" y="670" type="line"/>
      <point x="476" y="670" type="line"/>
      <point x="476" y="554" type="line"/>
      <point x="556" y="554" type="line"/>
      <point x="556" y="750" type="line"/>
    </contour>
    <contour>
      <point x="263" y="916" type="line"/>
      <point x="174" y="839" type="line"/>
      <point x="187" y="811" type="line"/>
      <point x="269" y="811" type="line"/>
      <point x="312" y="860" type="line"/>
      <point x="356" y="811" type="line"/>
      <point x="438" y="811" type="line"/>
      <point x="451" y="839" type="line"/>
      <point x="362" y="916" type="line"/>
    </contour>
  </outline>
</glyph>
<glyph name="Igrave" format="1">
  <advance width="392"/>
  <unicode hex="00CC"/>
  <outline>
    <contour>
      <point x="70" y="750" type="line"/>
      <point x="70" y="670" type="line"/>
      <point x="150" y="670" type="line"/>
      <point x="150" y="80" type="line"/>
      <point x="70" y="80" type="line"/>
      <point x="70" y="0" type="line"/>
      <point x="322" y="0" type="line"/>
      <point x="322" y="80" type="line"/>
      <point x="242" y="80" type="line"/>
      <point x="242" y="670" type="line"/>
      <point x="322" y="670" type="line"/>
      <point x="322" y="750" type="line"/>
    </contour>
    <contour>
      <point x="85" y="843" type="line"/>
      <point x="163" y="811" type="line" name="hr01"/>
      <point x="295" y="811" type="line"/>
      <point x="308" y="849" type="line"/>
      <point x="114" y="926" type="line"/>
    </contour>
  </outline>
</glyph>
<glyph name="Icircumflex" format="1">
  <advance width="392"/>
  <unicode hex="00CE"/>
  <outline>
    <contour>
      <point x="70" y="750" type="line" name="hr00"/>
      <point x="70" y="670" type="line"/>
      <point x="150" y="670" type="line"/>
      <point x="150" y="80" type="line"/>
      <point x="70" y="80" type="line"/>
      <point x="70" y="0" type="line"/>
      <point x="322" y="0" type="line"/>
      <point x="322" y="80" type="line"/>
      <point x="242" y="80" type="line"/>
      <point x="242" y="670" type="line"/>
      <point x="322" y="670" type="line"/>
      <point x="322" y="750" type="line"/>
    </contour>
    <contour>
      <point x="147" y="916" type="line"/>
      <point x="58" y="839" type="line"/>
      <point x="71" y="811" type="line"/>
      <point x="153" y="811" type="line"/>
      <point x="196" y="860" type="line"/>
      <point x="240" y="811" type="line"/>
      <point x="322" y="811" type="line"/>
      <point x="335" y="839" type="line"/>
      <point x="246" y="916" type="line"/>
    </contour>
  </outline>
</glyph>
<glyph name="Ucircumflex" format="1">
  <advance width="740"/>
  <unicode hex="00DB"/>
  <outline>
    <contour>
      <point x="448" y="750" type="line" name="hr00"/>
      <point x="448" y="670" type="line"/>
      <point x="518" y="670" type="line"/>
      <point x="518" y="139" type="line"/>
      <point x="466" y="86" type="line"/>
      <point x="273" y="86" type="line"/>
      <point x="222" y="139" type="line"/>
      <point x="222" y="670" type="line"/>
      <point x="292" y="670" type="line"/>
      <point x="292" y="750" type="line"/>
      <point x="70" y="750" type="line"/>
      <point x="70" y="670" type="line"/>
      <point x="130" y="670" type="line"/>
      <point x="130" y="110" type="line"/>
      <point x="234" y="0" type="line"/>
      <point x="506" y="0" type="line"/>
      <point x="610" y="110" type="line"/>
      <point x="610" y="670" type="line"/>
      <point x="670" y="670" type="line"/>
      <point x="670" y="750" type="line"/>
    </contour>
    <contour>
      <point x="320" y="916" type="line"/>
      <point x="231" y="839" type="line"/>
      <point x="244" y="811" type="line"/>
      <point x="326" y="811" type="line"/>
      <point x="369" y="860" type="line"/>
      <point x="413" y="811" type="line"/>
      <point x="495" y="811" type="line"/>
      <point x="508" y="839" type="line"/>
      <point x="419" y="916" type="line"/>
    </contour>
  </outline>
</glyph>
<glyph name="germandbls" format="1">
  <advance width="714"/>
  <unicode hex="00DF"/>
  <outline>
    <contour>
      <point x="584" y="403" type="line"/>
      <point x="492" y="403" type="line"/>
      <point x="566" y="480" type="line"/>
      <point x="566" y="640" type="line"/>
      <point x="462" y="750" type="line"/>
      <point x="234" y="750" type="line"/>
      <point x="130" y="640" type="line"/>
      <point x="130" y="80" type="line"/>
      <point x="60" y="80" type="line"/>
      <point x="60" y="0" type="line"/>
      <point x="222" y="0" type="line"/>
      <point x="222" y="611" type="line"/>
      <point x="274" y="664" type="line"/>
      <point x="423" y="664" type="line"/>
      <point x="480" y="605" type="line"/>
      <point x="480" y="515" type="line"/>
      <point x="369" y="403" type="line"/>
      <point x="304" y="403" type="line"/>
      <point x="304" y="323" type="line"/>
      <point x="548" y="323" type="line" name="hr01"/>
      <point x="548" y="145" type="line"/>
      <point x="490" y="86" type="line"/>
      <point x="392" y="86" type="line"/>
      <point x="314" y="165" type="line"/>
      <point x="255" y="103" type="line"/>
      <point x="352" y="0" type="line"/>
      <point x="530" y="0" type="line"/>
      <point x="634" y="110" type="line"/>
      <point x="634" y="353" type="line"/>
    </contour>
  </outline>
</glyph>
<glyph name="ae" format="1">
  <advance width="947"/>
  <unicode hex="00E6"/>
  <outline>
    <contour>
      <point x="391" y="80" type="line" name="hr00"/>
      <point x="391" y="0" type="line"/>
      <point x="867" y="0" type="line"/>
      <point x="867" y="196" type="line"/>
      <point x="787" y="196" type="line"/>
      <point x="787" y="80" type="line"/>
      <point x="553" y="80" type="line"/>
      <point x="553" y="285" type="line"/>
      <point x="787" y="285" type="line"/>
      <point x="787" y="365" type="line"/>
      <point x="553" y="365" type="line"/>
      <point x="553" y="570" type="line"/>
      <point x="787" y="570" type="line"/>
      <point x="787" y="454" type="line"/>
      <point x="867" y="454" type="line"/>
      <point x="867" y="650" type="line"/>
      <point x="195" y="650" type="line"/>
      <point x="195" y="570" type="line"/>
      <point x="237" y="570" type="line"/>
      <point x="68" y="80" type="line"/>
      <point x="15" y="80" type="line"/>
      <point x="15" y="0" type="line"/>
      <point x="227" y="0" type="line"/>
      <point x="227" y="80" type="line"/>
      <point x="160" y="80" type="line"/>
      <point x="231" y="285" type="line"/>
      <point x="461" y="285" type="line"/>
      <point x="461" y="80" type="line"/>
    </contour>
    <contour>
      <point x="329" y="570" type="line"/>
      <point x="461" y="570" type="line"/>
      <point x="461" y="365" type="line"/>
      <point x="258" y="365" type="line"/>
    </contour>
  </outline>
</glyph>
<glyph name="ccedilla" format="1">
  <advance width="600"/>
  <unicode hex="00E7"/>
  <outline>
    <contour>
      <point x="260" y="0" type="line" name="hr00"/>
      <point x="240" y="-150" type="line"/>
      <point x="290" y="-150" type="line"/>
      <point x="360" y="0" type="line"/>
      <point x="436" y="0" type="line"/>
      <point x="540" y="110" type="line"/>
      <point x="540" y="236" type="line"/>
      <point x="460" y="236" type="line"/>
      <point x="460" y="151" type="line"/>
      <point x="396" y="86" type="line"/>
      <point x="223" y="86" type="line"/>
      <point x="172" y="139" type="line"/>
      <point x="172" y="511" type="line"/>
      <point x="224" y="564" type="line"/>
      <point x="397" y="564" type="line"/>
      <point x="460" y="499" type="line"/>
      <point x="460" y="414" type="line"/>
      <point x="540" y="414" type="line"/>
      <point x="540" y="540" type="line"/>
      <point x="436" y="650" type="line"/>
      <point x="184" y="650" type="line"/>
      <point x="80" y="540" type="line"/>
      <point x="80" y="110" type="line"/>
      <point x="184" y="0" type="line"/>
    </contour>
  </outline>
</glyph>
<glyph name="egrave" format="1">
  <advance width="636"/>
  <unicode hex="00E8"/>
  <outline>
    <contour>
      <point x="80" y="650" type="line"/>
      <point x="80" y="570" type="line"/>
      <point x="150" y="570" type="line"/>
      <point x="150" y="80" type="line"/>
      <point x="80" y="80" type="line"/>
      <point x="80" y="0" type="line"/>
      <point x="556" y="0" type="line"/>
      <point x="556" y="196" type="line"/>
      <point x="476" y="196" type="line"/>
      <point x="476" y="80" type="line"/>
      <point x="242" y="80" type="line"/>
      <point x="242" y="285" type="line"/>
      <point x="476" y="285" type="line"/>
      <point x="476" y="365" type="line"/>
      <point x="242" y="365" type="line"/>
      <point x="242" y="570" type="line"/>
      <point x="476" y="570" type="line"/>
      <point x="476" y="454" type="line"/>
      <point x="556" y="454" type="line"/>
      <point x="556" y="650" type="line"/>
    </contour>
    <contour>
      <point x="201" y="743" type="line"/>
      <point x="279" y="711" type="line" name="hr01"/>
      <point x="411" y="711" type="line"/>
      <point x="424" y="749" type="line"/>
      <point x="230" y="826" type="line"/>
    </contour>
  </outline>
</glyph>
<glyph name="ecircumflex" format="1">
  <advance width="636"/>
  <unicode hex="00EA"/>
  <outline>
    <contour>
      <point x="80" y="650" type="line" name="hr00"/>
      <point x="80" y="570" type="line"/>
      <point x="150" y="570" type="line"/>
      <point x="150" y="80" type="line"/>
      <point x="80" y="80" type="line"/>
      <point x="80" y="0" type="line"/>
      <point x="556" y="0" type="line"/>
      <point x="556" y="196" type="line"/>
      <point x="476" y="196" type="line"/>
      <point x="476" y="80" type="line"/>
      <point x="242" y="80" type="line"/>
      <point x="242" y="285" type="line"/>
      <point x="476" y="285" type="line"/>
      <point x="476" y="365" type="line"/>
      <point x="242" y="365" type="line"/>
      <point x="242" y="570" type="line"/>
      <point x="476" y="570" type="line"/>
      <point x="476" y="454" type="line"/>
      <point x="556" y="454" type="line"/>
      <point x="556" y="650" type="line"/>
    </contour>
    <contour>
      <point x="263" y="816" type="line"/>
      <point x="174" y="739" type="line"/>
      <point x="187" y="711" type="line"/>
      <point x="269" y="711" type="line"/>
      <point x="312" y="760" type="line"/>
      <point x="356" y="711" type="line"/>
      <point x="438" y="711" type="line"/>
      <point x="451" y="739" type="line"/>
      <point x="362" y="816" type="line"/>
    </contour>
  </outline>
</glyph>
<glyph name="eth" format="1">
  <advance width="690"/>
  <unicode hex="00F0"/>
  <outline>
    <contour>
      <point x="80" y="650" type="line" name="hr00"/>
      <point x="80" y="570" type="line"/>
      <point x="150" y="570" type="line"/>
      <point x="150" y="365" type="line"/>
      <point x="87" y="365" type="line"/>
      <point x="87" y="285" type="line"/>
      <point x="150" y="285" type="line"/>
      <point x="150" y="80" type="line"/>
      <point x="80" y="80" type="line"/>
      <point x="80" y="0" type="line"/>
      <point x="506" y="0" type="line"/>
      <point x="610" y="110" type="line"/>
      <point x="610" y="540" type="line"/>
      <point x="506" y="650" type="line"/>
    </contour>
    <contour>
      <point x="242" y="86" type="line"/>
      <point x="242" y="285" type="line"/>
      <point x="396" y="285" type="line"/>
      <point x="396" y="365" type="line"/>
      <point x="242" y="365" type="line"/>
      <point x="242" y="564" type="line"/>
      <point x="467" y="564" type="line"/>
      <point x="518" y="511" type="line"/>
      <point x="518" y="139" type="line"/>
      <point x="466" y="86" type="line"/>
    </contour>
  </outline>
</glyph>
<glyph name="ntilde" format="1">
  <advance width="812"/>
  <unicode hex="00F1"/>
  <outline>
    <contour>
      <point x="80" y="650" type="line" name="hr00"/>
      <point x="80" y="570" type="line"/>
      <point x="150" y="570" type="line"/>
      <point x="150" y="80" type="line"/>
      <point x="80" y="80" type="line"/>
      <point x="80" y="0" type="line"/>
      <point x="312" y="0" type="line"/>
      <point x="312" y="80" type="line"/>
      <point x="242" y="80" type="line"/>
      <point x="242" y="551" type="line"/>
      <point x="534" y="0" type="line"/>
      <point x="672" y="0" type="line"/>
      <point x="672" y="570" type="line"/>
      <point x="742" y="570" type="line"/>
      <point x="742" y="650" type="line"/>
      <point x="510" y="650" type="line"/>
      <point x="510" y="570" type="line"/>
      <point x="580" y="570" type="line"/>
      <point x="580" y="98" type="line"/>
      <point x="288" y="650" type="line"/>
    </contour>
    <contour>
      <point x="477" y="711" type="line"/>
      <point x="555" y="788" type="line"/>
      <point x="542" y="816" type="line"/>
      <point x="470" y="816" type="line"/>
      <point x="438" y="788" type="line"/>
      <point x="381" y="816" type="line"/>
      <point x="355" y="816" type="line"/>
      <point x="277" y="739" type="line"/>
      <point x="290" y="711" type="line"/>
      <point x="362" y="711" type="line"/>
      <point x="394" y="739" type="line"/>
      <point x="451" y="711" type="line"/>
    </contour>
  </outline>
</glyph>
<glyph name="ograve" format="1">
  <advance width="650"/>
  <unicode hex="00F2"/>
  <outline>
    <contour>
      <point x="184" y="0" type="line"/>
      <point x="466" y="0" type="line"/>
      <point x="570" y="110" type="line"/>
      <point x="570" y="540" type="line"/>
      <point x="466" y="650" type="line"/>
      <point x="184" y="650" type="line"/>
      <point x="80" y="540" type="line"/>
      <point x="80" y="110" type="line"/>
    </contour>
    <contour>
      <point x="223" y="86" type="line"/>
      <point x="172" y="139" type="line"/>
      <point x="172" y="511" type="line"/>
      <point x="224" y="564" type="line"/>
      <point x="427" y="564" type="line"/>
      <point x="478" y="511" type="line"/>
      <point x="478" y="139" type="line"/>
      <point x="426" y="86" type="line"/>
    </contour>
    <contour>
      <point x="213" y="743" type="line"/>
      <point x="291" y="711" type="line" name="hr01"/>
      <point x="423" y="711" type="line"/>
      <point x="436" y="749" type="line"/>
      <point x="242" y="826" type="line"/>
    </contour>
  </outline>
</glyph>
<glyph name="odieresis" format="1">
  <advance width="650"/>
  <unicode hex="00F6"/>
  <outline>
    <contour>
      <point x="184" y="0" type="line" name="hr00"/>
      <point x="466" y="0" type="line"/>
      <point x="570" y="110" type="line"/>
      <point x="570" y="540" type="line"/>
      <point x="466" y="650" type="line"/>
      <point x="184" y="650" type="line"/>
      <point x="80" y="540" type="line"/>
      <point x="80" y="110" type="line"/>
    </contour>
    <contour>
      <point x="223" y="86" type="line"/>
      <point x="172" y="139" type="line"/>
      <point x="172" y="511" type="line"/>
      <point x="224" y="564" type="line"/>
      <point x="427" y="564" type="line"/>
      <point x="478" y="511" type="line"/>
      <point x="478" y="139" type="line"/>
      <point x="426" y="86" type="line"/>
    </contour>
    <contour>
      <point x="189" y="711" type="line"/>
      <point x="281" y="711" type="line"/>
      <point x="281" y="812" type="line"/>
      <point x="189" y="812" type="line"/>
    </contour>
    <contour>
      <point x="368" y="711" type="line"/>
      <point x="460" y="711" type="line"/>
      <point x="460" y="812" type="line"/>
      <point x="368" y="812" type="line"/>
    </contour>
  </outline>
</glyph>
<glyph name="udieresis" format="1">
  <advance width="740"/>
  <unicode hex="00FC"/>
  <outline>
    <contour>
      <point x="448" y="650" type="line" name="hr00"/>
      <point x="448" y="570" type="line"/>
      <point x="518" y="570" type="line"/>
      <point x="518" y="139" type="line"/>
      <point x="466" y="86" type="line"/>
      <point x="273" y="86" type="line"/>
      <point x="222" y="139" type="line"/>
      <point x="222" y="570" type="line"/>
      <point x="292" y="570" type="line"/>
      <point x="292" y="650" type="line"/>
      <point x="70" y="650" type="line"/>
      <point x="70" y="570" type="line"/>
      <point x="130" y="570" type="line"/>
      <point x="130" y="110" type="line"/>
      <point x="234" y="0" type="line"/>
      <point x="506" y="0" type="line"/>
      <point x="610" y="110" type="line"/>
      <point x="610" y="570" type="line"/>
      <point x="670" y="570" type="line"/>
      <point x="670" y="650" type="line"/>
    </contour>
    <contour>
      <point x="413" y="711" type="line"/>
      <point x="505" y="711" type="line"/>
      <point x="505" y="812" type="line"/>
      <point x="413" y="812" type="line"/>
    </contour>
    <contour>
      <point x="234" y="711" type="line"/>
      <point x="326" y="711" type="line"/>
      <point x="326" y="812" type="line"/>
      <point x="234" y="812" type="line"/>
    </contour>
  </outline>
</glyph>
<glyph name="yacute" format="1">
  <advance width="607"/>
  <unicode hex="00FD"/>
  <outline>
    <contour>
      <point x="440" y="0" type="line"/>
      <point x="440" y="80" type="line"/>
      <point x="350" y="80" type="line"/>
      <point x="350" y="206" type="line"/>
      <point x="523" y="570" type="line"/>
      <point x="587" y="570" type="line"/>
      <point x="587" y="650" type="line"/>
      <point x="375" y="650" type="line"/>
      <point x="375" y="570" type="line"/>
      <point x="435" y="570" type="line"/>
      <point x="303" y="293" type="line"/>
      <point x="172" y="570" type="line"/>
      <point x="232" y="570" type="line"/>
      <point x="232" y="650" type="line"/>
      <point x="20" y="650" type="line"/>
      <point x="20" y="570" type="line"/>
      <point x="84" y="570" type="line"/>
      <point x="258" y="204" type="line"/>
      <point x="258" y="80" type="line"/>
      <point x="168" y="80" type="line"/>
      <point x="168" y="0" type="line"/>
    </contour>
    <contour>
      <point x="406" y="826" type="line"/>
      <point x="212" y="749" type="line"/>
      <point x="225" y="711" type="line" name="hr01"/>
      <point x="357" y="711" type="line"/>
      <point x="435" y="743" type="line"/>
    </contour>
  </outline>
</glyph>
<glyph name="thorn" format="1">
  <advance width="624"/>
  <unicode hex="00FE"/>
  <outline>
    <contour>
      <point x="80" y="650" type="line" name="hr00"/>
      <point x="80" y="570" type="line"/>
      <point x="150" y="570" type="line"/>
      <point x="150" y="80" type="line"/>
      <point x="80" y="80" type="line"/>
      <point x="80" y="0" type="line"/>
      <point x="242" y="0" type="line"/>
      <point x="242" y="124" type="line"/>
      <point x="480" y="124" type="line"/>
      <point x="584" y="234" type="line"/>
      <point x="584" y="424" type="line"/>
      <point x="480" y="534" type="line"/>
      <point x="242" y="534" type="line"/>
      <point x="242" y="650" type="line"/>
    </contour>
    <contour>
      <point x="440" y="210" type="line"/>
      <point x="242" y="210" type="line"/>
      <point x="242" y="448" type="line"/>
      <point x="441" y="448" type="line"/>
      <point x="498" y="389" type="line"/>
      <point x="498" y="269" type="line"/>
    </contour>
  </outline>
</glyph>
<glyph name="dotlessi" format="1">
  <advance width="392"/>
  <unicode hex="0131"/>
  <outline>
    <contour>
      <point x="70" y="80" type="line" name="hr00"/>
      <point x="70" y="0" type="line"/>
      <point x="322" y="0" type="line"/>
      <point x="322" y="80" type="line"/>
      <point x="242" y="80" type="line"/>
      <point x="242" y="570" type="line"/>
      <point x="322" y="570" type="line"/>
      <point x="322" y="650" type="line"/>
      <point x="70" y="650" type="line"/>
      <point x="70" y="570" type="line"/>
      <point x="150" y="570" type="line"/>
      <point x="150" y="80" type="line"/>
    </contour>
  </outline>
</glyph>
<glyph name="lslash" format="1">
  <advance width="556"/>
  <unicode hex="0142"/>
  <outline>
    <contour>
      <point x="80" y="80" type="line" name="hr00"/>
      <point x="80" y="0" type="line"/>
      <point x="536" y="0" type="line"/>
      <point x="536" y="196" type="line"/>
      <point x="460" y="196" type="line"/>
      <point x="460" y="80" type="line"/>
      <point x="242" y="80" type="line"/>
      <point x="242" y="295" type="line"/>
      <point x="377" y="339" type="line"/>
      <point x="377" y="409" type="line"/>
      <point x="242" y="365" type="line"/>
      <point x="242" y="570" type="line"/>
      <point x="322" y="570" type="line"/>
      <point x="322" y="650" type="line"/>
      <point x="80" y="650" type="line"/>
      <point x="80" y="570" type="line"/>
      <point x="150" y="570" type="line"/>
      <point x="150" y="335" type="line"/>
      <point x="68" y="309" type="line"/>
      <point x="68" y="239" type="line"/>
      <point x="150" y="265" type="line"/>
      <point x="150" y="80" type="line"/>
    </contour>
  </outline>
</glyph>
<glyph name="eng" format="1">
  <advance width="812"/>
  <unicode hex="014B"/>
  <outline>
    <contour>
      <point x="318" y="-72" type="line" name="hr00"/>
      <point x="416" y="-173" type="line"/>
      <point x="568" y="-173" type="line"/>
      <point x="672" y="-63" type="line"/>
      <point x="672" y="114" type="line"/>
      <point x="580" y="114" type="line"/>
      <point x="580" y="-34" type="line"/>
      <point x="528" y="-87" type="line"/>
      <point x="455" y="-87" type="line"/>
      <point x="380" y="-10" type="line"/>
    </contour>
    <contour>
      <point x="580" y="45" type="line"/>
      <point x="672" y="114" type="line"/>
      <point x="672" y="570" type="line"/>
      <point x="742" y="570" type="line"/>
      <point x="742" y="650" type="line"/>
      <point x="510" y="650" type="line"/>
      <point x="510" y="570" type="line"/>
      <point x="580" y="570" type="line"/>
      <point x="580" y="212" type="line"/>
      <point x="288" y="650" type="line"/>
      <point x="80" y="650" type="line"/>
      <point x="80" y="570" type="line"/>
      <point x="150" y="570" type="line"/>
      <point x="150" y="80" type="line"/>
      <point x="80" y="80" type="line"/>
      <point x="80" y="0" type="line"/>
      <point x="242" y="0" type="line"/>
      <point x="242" y="551" type="line"/>
    </contour>
  </outline>
</glyph>
<glyph name="OE" format="1">
  <advance width="935"/>
  <unicode hex="0152"/>
  <outline>
    <contour>
      <point x="184" y="0" type="line" name="hr00"/>
      <point x="855" y="0" type="line"/>
      <point x="855" y="196" type="line"/>
      <point x="775" y="196" type="line"/>
      <point x="775" y="80" type="line"/>
      <point x="540" y="80" type="line"/>
      <point x="540" y="335" type="line"/>
      <point x="775" y="335" type="line"/>
      <point x="775" y="415" type="line"/>
      <point x="540" y="415" type="line"/>
      <point x="540" y="670" type="line"/>
      <point x="775" y="670" type="line"/>
      <point x="775" y="554" type="line"/>
      <point x="855" y="554" type="line"/>
      <point x="855" y="750" type="line"/>
      <point x="184" y="750" type="line"/>
      <point x="80" y="640" type="line"/>
      <point x="80" y="110" type="line"/>
    </contour>
    <contour>
      <point x="229" y="80" type="line"/>
      <point x="172" y="139" type="line"/>
      <point x="172" y="611" type="line"/>
      <point x="230" y="670" type="line"/>
      <point x="448" y="670" type="line"/>
      <point x="448" y="80" type="line"/>
    </contour>
  </outline>
</glyph>
<glyph name="oe" format="1">
  <advance width="935"/>
  <unicode hex="0153"/>
  <outline>
    <contour>
      <point x="184" y="0" type="line" name="hr00"/>
      <point x="855" y="0" type="line"/>
      <point x="855" y="196" type="line"/>
      <point x="775" y="196" type="line"/>
      <point x="775" y="80" type="line"/>
      <point x="540" y="80" type="line"/>
      <point x="540" y="286" type="line"/>
      <point x="775" y="286" type="line"/>
      <point x="775" y="366" type="line"/>
      <point x="540" y="366" type="line"/>
      <point x="540" y="570" type="line"/>
      <point x="775" y="570" type="line"/>
      <point x="775" y="454" type="line"/>
      <point x="855" y="454" type="line"/>
      <point x="855" y="650" type="line"/>
      <point x="184" y="650" type="line"/>
      <point x="80" y="540" type="line"/>
      <point x="80" y="110" type="line"/>
    </contour>
    <contour>
      <point x="229" y="80" type="line"/>
      <point x="172" y="139" type="line"/>
      <point x="172" y="511" type="line"/>
      <point x="230" y="570" type="line"/>
      <point x="448" y="570" type="line"/>
      <point x="448" y="80" type="line"/>
    </contour>
  </outline>
</glyph>
<glyph name="Ydieresis" format="1">
  <advance width="607"/>
  <unicode hex="0178"/>
  <outline>
    <contour>
      <point x="440" y="0" type="line"/>
      <point x="440" y="80" type="line"/>
      <point x="350" y="80" type="line"/>
      <point x="350" y="237" type="line"/>
      <point x="536" y="670" type="line"/>
      <point x="587" y="670" type="line"/>
      <point x="587" y="750" type="line"/>
      <point x="375" y="750" type="line"/>
      <point x="375" y="670" type="line"/>
      <point x="448" y="670" type="line"/>
      <point x="303" y="333" type="line"/>
      <point x="158" y="670" type="line"/>
      <point x="232" y="670" type="line"/>
      <point x="232" y="750" type="line"/>
      <point x="20" y="750" type="line"/>
      <point x="20" y="670" type="line"/>
      <point x="70" y="670" type="line"/>
      <point x="258" y="234" type="line"/>
      <point x="258" y="80" type="line"/>
      <point x="168" y="80" type="line" name="hr01"/>
      <point x="168" y="0" type="line"/>
    </contour>
    <contour>
      <point x="168" y="811" type="line"/>
      <point x="260" y="811" type="line"/>
      <point x="260" y="912" type="line"/>
      <point x="168" y="912" type="line"/>
    </contour>
    <contour>
      <point x="347" y="811" type="line"/>
      <point x="439" y="811" type="line"/>
      <point x="439" y="912" type="line"/>
      <point x="347" y="912" type="line"/>
    </contour>
  </outline>
</glyph>
<glyph name="caron" format="1">
  <advance width="397"/>
  <unicode hex="02C7"/>
  <outline>
    <contour>
      <point x="248" y="711" type="line" name="hr00"/>
      <point x="337" y="788" type="line"/>
      <point x="324" y="816" type="line"/>
      <point x="242" y="816" type="line"/>
      <point x="198" y="767" type="line"/>
      <point x="155" y="816" type="line"/>
      <point x="73" y="816" type="line"/>
      <point x="60" y="788" type="line"/>
      <point x="149" y="711" type="line"/>
    </contour>
  </outline>
</glyph>
<glyph name="dotaccent" format="1">
  <advance width="217"/>
  <unicode hex="02D9"/>
  <outline>
    <contour>
      <point x="58" y="711" type="line" name="hr00"/>
      <point x="159" y="711" type="line"/>
      <point x="159" y="812" type="line"/>
      <point x="58" y="812" type="line"/>
    </contour>
  </outline>
</glyph>
<glyph name="hungarumlaut" format="1">
  <advance width="602"/>
  <unicode hex="02DD"/>
  <outline>
    <contour>
      <point x="315" y="821" type="line" name="hr00"/>
      <point x="160" y="749" type="line"/>
      <point x="173" y="711" type="line"/>
      <point x="275" y="711" type="line"/>
      <point x="351" y="749" type="line"/>
    </contour>
    <contour>
      <point x="536" y="821" type="line"/>
      <point x="381" y="749" type="line"/>
      <point x="394" y="711" type="line"/>
      <point x="496" y="711" type="line"/>
      <point x="572" y="749" type="line"/>
    </contour>
  </outline>
</glyph>
<glyph name="pi" format="1">
  <advance width="762"/>
  <unicode hex="03C0"/>
  <outline>
    <contour>
      <point x="80" y="650" type="line" name="hr00"/>
      <point x="80" y="570" type="line"/>
      <point x="160" y="570" type="line"/>
      <point x="160" y="0" type="line"/>
      <point x="252" y="0" type="line"/>
      <point x="252" y="570" type="line"/>
      <point x="510" y="570" type="line"/>
      <point x="510" y="50" type="line"/>
      <point x="600" y="-35" type="line"/>
      <point x="661" y="26" type="line"/>
      <point x="602" y="83" type="line"/>
      <point x="602" y="570" type="line"/>
      <point x="682" y="570" type="line"/>
      <point x="682" y="650" type="line"/>
    </contour>
  </outline>
</glyph>
<glyph name="quoteright" format="1">
  <advance width="240"/>
  <unicode hex="2019"/>
  <outline>
    <contour>
      <point x="70" y="800" type="line" name="hr00"/>
      <point x="70" y="550" type="line"/>
      <point x="110" y="550" type="line"/>
      <point x="170" y="710" type="line"/>
      <point x="170" y="800" type="line"/>
    </contour>
  </outline>
</glyph>
<glyph name="quotesinglbase" format="1">
  <advance width="200"/>
  <unicode hex="201A"/>
  <outline>
    <contour>
      <point x="50" y="120" type="line" name="hr00"/>
      <point x="50" y="-130" type="line"/>
      <point x="90" y="-130" type="line"/>
      <point x="150" y="30" type="line"/>
      <point x="150" y="120" type="line"/>
    </contour>
  </outline>
</glyph>
<glyph name="quotedblright" format="1">
  <advance width="400"/>
  <unicode hex="201D"/>
  <outline>
    <contour>
      <point x="230" y="800" type="line" name="hr00"/>
      <point x="230" y="550" type="line"/>
      <point x="270" y="550" type="line"/>
      <point x="330" y="710" type="line"/>
      <point x="330" y="800" type="line"/>
    </contour>
    <contour>
      <point x="70" y="800" type="line"/>
      <point x="70" y="550" type="line"/>
      <point x="110" y="550" type="line"/>
      <point x="170" y="710" type="line"/>
      <point x="170" y="800" type="line"/>
    </contour>
  </outline>
</glyph>
<glyph name="dagger" format="1">
  <advance width="560"/>
  <unicode hex="2020"/>
  <outline>
    <contour>
      <point x="50" y="500" type="line" name="hr00"/>
      <point x="150" y="500" type="line"/>
      <point x="255" y="524" type="line"/>
      <point x="230" y="400" type="line"/>
      <point x="230" y="-100" type="line"/>
      <point x="330" y="-100" type="line"/>
      <point x="330" y="400" type="line"/>
      <point x="305" y="524" type="line"/>
      <point x="410" y="500" type="line"/>
      <point x="510" y="500" type="line"/>
      <point x="510" y="600" type="line"/>
      <point x="410" y="600" type="line"/>
      <point x="305" y="576" type="line"/>
      <point x="330" y="700" type="line"/>
      <point x="330" y="800" type="line"/>
      <point x="230" y="800" type="line"/>
      <point x="230" y="700" type="line"/>
      <point x="255" y="576" type="line"/>
      <point x="150" y="600" type="line"/>
      <point x="50" y="600" type="line"/>
    </contour>
  </outline>
</glyph>
<glyph name="bullet" format="1">
  <advance width="300"/>
  <unicode hex="2022"/>
  <outline>
    <contour>
      <point x="70" y="471" type="line" name="hr00"/>
      <point x="70" y="279" type="line"/>
      <point x="230" y="279" type="line"/>
      <point x="230" y="471" type="line"/>
    </contour>
  </outline>
</glyph>
<glyph name="guilsinglright" format="1">
  <advance width="269"/>
  <unicode hex="203A"/>
  <outline>
    <contour>
      <point x="35" y="221" type="line" name="hr00"/>
      <point x="104" y="168" type="line"/>
      <point x="234" y="342" type="line"/>
      <point x="234" y="408" type="line"/>
      <point x="104" y="582" type="line"/>
      <point x="35" y="529" type="line"/>
      <point x="147" y="375" type="line"/>
    </contour>
  </outline>
</glyph>
<glyph name="fraction" format="1">
  <advance width="900"/>
  <unicode hex="2044"/>
  <outline>
    <contour>
      <point x="259" y="-35" type="line" name="hr00"/>
      <point x="336" y="-35" type="line"/>
      <point x="641" y="784" type="line"/>
      <point x="564" y="784" type="line"/>
    </contour>
  </outline>
</glyph>
<glyph name="Omega" format="1">
  <advance width="803"/>
  <unicode hex="2126"/>
  <outline>
    <contour>
      <point x="201" y="180" type="line" name="hr00"/>
      <point x="260" y="180" type="line"/>
      <point x="260" y="80" type="line"/>
      <point x="80" y="80" type="line"/>
      <point x="80" y="0" type="line"/>
      <point x="342" y="0" type="line"/>
      <point x="342" y="256" type="line"/>
      <point x="250" y="256" type="line"/>
      <point x="189" y="319" type="line"/>
      <point x="189" y="611" type="line"/>
      <point x="241" y="664" type="line"/>
      <point x="564" y="664" type="line"/>
      <point x="615" y="611" type="line"/>
      <point x="615" y="319" type="line"/>
      <point x="553" y="256" type="line"/>
      <point x="461" y="256" type="line"/>
      <point x="461" y="0" type="line"/>
      <point x="723" y="0" type="line"/>
      <point x="723" y="80" type="line"/>
      <point x="543" y="80" type="line"/>
      <point x="543" y="180" type="line"/>
      <point x="603" y="180" type="line"/>
      <point x="707" y="290" type="line"/>
      <point x="707" y="640" type="line"/>
      <point x="603" y="750" type="line"/>
      <point x="201" y="750" type="line"/>
      <point x="97" y="640" type="line"/>
      <point x="97" y="290" type="line"/>
    </contour>
  </outline>
</glyph>
<glyph name="partialdiff" format="1">
  <advance width="650"/>
  <unicode hex="2202"/>
  <outline>
    <contour>
      <point x="331" y="683" type="line" name="hr00"/>
      <point x="331" y="613" type="line"/>
      <point x="450" y="651" type="line"/>
      <point x="470" y="582" type="line"/>
      <point x="461" y="493" type="line"/>
      <point x="178" y="493" type="line"/>
      <point x="74" y="383" type="line"/>
      <point x="52" y="110" type="line"/>
      <point x="156" y="0" type="line"/>
      <point x="416" y="0" type="line"/>
      <point x="520" y="110" type="line"/>
      <point x="565" y="586" type="line"/>
      <point x="536" y="679" type="line"/>
      <point x="640" y="713" type="line"/>
      <point x="640" y="783" type="line"/>
      <point x="516" y="743" type="line"/>
      <point x="487" y="838" type="line"/>
      <point x="405" y="813" type="line"/>
      <point x="432" y="716" type="line"/>
    </contour>
    <contour>
      <point x="376" y="86" type="line"/>
      <point x="195" y="86" type="line"/>
      <point x="144" y="139" type="line"/>
      <point x="166" y="354" type="line"/>
      <point x="218" y="407" type="line"/>
      <point x="453" y="407" type="line"/>
      <point x="428" y="139" type="line"/>
    </contour>
  </outline>
</glyph>
<glyph name="product" format="1">
  <advance width="762"/>
  <unicode hex="220F"/>
  <outline>
    <contour>
      <point x="160" y="-100" type="line" name="hr00"/>
      <point x="252" y="-100" type="line"/>
      <point x="252" y="670" type="line"/>
      <point x="510" y="670" type="line"/>
      <point x="510" y="-100" type="line"/>
      <point x="602" y="-100" type="line"/>
      <point x="602" y="670" type="line"/>
      <point x="682" y="670" type="line"/>
      <point x="682" y="750" type="line"/>
      <point x="80" y="750" type="line"/>
      <point x="80" y="670" type="line"/>
      <point x="160" y="670" type="line"/>
    </contour>
  </outline>
</glyph>
<glyph name="summation" format="1">
  <advance width="622"/>
  <unicode hex="2211"/>
  <outline>
    <contour>
      <point x="90" y="-20" type="line" name="hr00"/>
      <point x="90" y="-100" type="line"/>
      <point x="592" y="-100" type="line"/>
      <point x="592" y="-20" type="line"/>
      <point x="194" y="-20" type="line"/>
      <point x="414" y="324" type="line"/>
      <point x="194" y="670" type="line"/>
      <point x="592" y="670" type="line"/>
      <point x="592" y="750" type="line"/>
      <point x="90" y="750" type="line"/>
      <point x="90" y="670" type="line"/>
      <point x="310" y="324" type="line"/>
    </contour>
  </outline>
</glyph>
<glyph name="minus" format="1">
  <advance width="650"/>
  <unicode hex="2212"/>
  <outline>
    <contour>
      <point x="115" y="415" type="line" name="hr00"/>
      <point x="115" y="335" type="line"/>
      <point x="535" y="335" type="line"/>
      <point x="535" y="415" type="line"/>
    </contour>
  </outline>
</glyph>
<glyph name="notequal" format="1">
  <advance width="650"/>
  <unicode hex="2260"/>
  <outline>
    <contour>
      <point x="115" y="295" type="line" name="hr00"/>
      <point x="115" y="215" type="line"/>
      <point x="233" y="215" type="line"/>
      <point x="134" y="-80" type="line"/>
      <point x="211" y="-80" type="line"/>
      <point x="309" y="215" type="line"/>
      <point x="535" y="215" type="line"/>
      <point x="535" y="295" type="line"/>
      <point x="336" y="295" type="line"/>
      <point x="390" y="455" type="line"/>
      <point x="535" y="455" type="line"/>
      <point x="535" y="535" type="line"/>
      <point x="417" y="535" type="line"/>
      <point x="516" y="830" type="line"/>
      <point x="439" y="830" type="line"/>
      <point x="340" y="535" type="line"/>
      <point x="115" y="535" type="line"/>
      <point x="115" y="455" type="line"/>
      <point x="313" y="455" type="line"/>
      <point x="260" y="295" type="line"/>
    </contour>
  </outline>
</glyph>
<glyph name="greaterequal" format="1">
  <advance width="650"/>
  <unicode hex="2265"/>
  <outline>
    <contour>
      <point x="115" y="215" type="line" name="hr00"/>
      <point x="115" y="135" type="line"/>
      <point x="535" y="335" type="line"/>
      <point x="535" y="415" type="line"/>
      <point x="115" y="615" type="line"/>
      <point x="115" y="535" type="line"/>
      <point x="451" y="375" type="line"/>
    </contour>
    <contour>
      <point x="115" y="80" type="line"/>
      <point x="115" y="0" type="line"/>
      <point x="535" y="0" type="line"/>
      <point x="535" y="80" type="line"/>
    </contour>
  </outline>
</glyph>
<glyph name="fl" format="1">
  <advance width="1152"/>
  <unicode hex="FB02"/>
  <outline>
    <contour>
      <point x="80" y="650" type="line" name="hr00"/>
      <point x="80" y="570" type="line"/>
      <point x="150" y="570" type="line"/>
      <point x="150" y="80" type="line"/>
      <point x="80" y="80" type="line"/>
      <point x="80" y="0" type="line"/>
      <point x="322" y="0" type="line"/>
      <point x="322" y="80" type="line"/>
      <point x="242" y="80" type="line"/>
      <point x="242" y="285" type="line"/>
      <point x="476" y="285" type="line"/>
      <point x="476" y="365" type="line"/>
      <point x="242" y="365" type="line"/>
      <point x="242" y="570" type="line"/>
      <point x="476" y="570" type="line"/>
      <point x="476" y="454" type="line"/>
      <point x="556" y="454" type="line"/>
      <point x="556" y="650" type="line"/>
    </contour>
    <contour>
      <point x="676" y="650" type="line"/>
      <point x="676" y="570" type="line"/>
      <point x="746" y="570" type="line"/>
      <point x="746" y="80" type="line"/>
      <point x="676" y="80" type="line"/>
      <point x="676" y="0" type="line"/>
      <point x="1132" y="0" type="line"/>
      <point x="1132" y="196" type="line"/>
      <point x="1056" y="196" type="line"/>
      <point x="1056" y="80" type="line"/>
      <point x="838" y="80" type="line"/>
      <point x="838" y="570" type="line"/>
      <point x="918" y="570" type="line"/>
      <point x="918" y="650" type="line"/>
    </contour>
  </outline>
</glyph>
